<svg xmlns="http://www.w3.org/2000/svg" viewBox="0 0 800 800" width="800" height="800">
  <defs>
    <radialGradient id="bg" cx="50%" cy="34%" r="75%">
      <stop offset="0%" stop-color="#141022"/><stop offset="55%" stop-color="#0a0812"/><stop offset="100%" stop-color="#04050a"/>
    </radialGradient>
    <radialGradient id="halo" cx="50%" cy="42%" r="50%">
      <stop offset="0%" stop-color="#22d3ee" stop-opacity="0.28"/><stop offset="100%" stop-color="#22d3ee" stop-opacity="0"/>
    </radialGradient>
    <filter id="glow" x="-30%" y="-30%" width="160%" height="160%"><feGaussianBlur stdDeviation="6"/></filter>
  </defs>
  <rect width="800" height="800" fill="url(#bg)"/>
  <rect width="800" height="800" fill="url(#halo)"/>
  <ellipse cx="400" cy="690" rx="230" ry="42" fill="#22d3ee" opacity="0.16"/>
  <g filter="url(#glow)" opacity="0.7"><path d="M319.25 331 L390.5 316.75 L395.25 359.5 L319.25 373.75 Z" fill="#22d3ee" fill-opacity="0.3" stroke="#22d3ee" stroke-width="2.85"/><path d="M480.75 331 L409.5 316.75 L404.75 359.5 L480.75 373.75 Z" fill="#3b82f6" fill-opacity="0.3" stroke="#3b82f6" stroke-width="2.85"/></g>
  <g>
        <path d="M280 460 Q280 250 520 250 Q520 460 520 460 Z" fill="#16131f" stroke="#22d3ee" stroke-opacity="0.55" stroke-width="2"/>
        <rect x="270" y="450" width="260" height="60" rx="14" fill="#0e0b16" stroke="#22d3ee" stroke-opacity="0.55" stroke-width="2"/></g>
  <g><path d="M319.25 331 L390.5 316.75 L395.25 359.5 L319.25 373.75 Z" fill="#22d3ee" fill-opacity="0.3" stroke="#22d3ee" stroke-width="2.85"/><path d="M480.75 331 L409.5 316.75 L404.75 359.5 L480.75 373.75 Z" fill="#3b82f6" fill-opacity="0.3" stroke="#3b82f6" stroke-width="2.85"/></g>
  <text x="40" y="60" font-family="Arial, sans-serif" font-weight="900" font-size="26" letter-spacing="3" fill="#e6e9f2">LEOPARD<tspan fill="#22d3ee">Ø</tspan></text>
  <text x="40" y="752" font-family="Arial, sans-serif" font-weight="800" font-size="22" fill="#cbd2e0">Visor Cuff Beanie</text>
  <text x="760" y="752" text-anchor="end" font-family="monospace" font-size="14" letter-spacing="2" fill="#6b7280">BEANIE</text>
</svg>