<svg xmlns="http://www.w3.org/2000/svg" viewBox="0 0 800 800" width="800" height="800">
  <defs>
    <radialGradient id="bg" cx="50%" cy="34%" r="75%">
      <stop offset="0%" stop-color="#141022"/><stop offset="55%" stop-color="#0a0812"/><stop offset="100%" stop-color="#04050a"/>
    </radialGradient>
    <radialGradient id="halo" cx="50%" cy="42%" r="50%">
      <stop offset="0%" stop-color="#a855f7" stop-opacity="0.28"/><stop offset="100%" stop-color="#a855f7" stop-opacity="0"/>
    </radialGradient>
    <filter id="glow" x="-30%" y="-30%" width="160%" height="160%"><feGaussianBlur stdDeviation="6"/></filter>
  </defs>
  <rect width="800" height="800" fill="url(#bg)"/>
  <rect width="800" height="800" fill="url(#halo)"/>
  <ellipse cx="400" cy="690" rx="230" ry="42" fill="#a855f7" opacity="0.16"/>
  <g filter="url(#glow)" opacity="0.7"><rect x="328" y="374" width="84" height="84" rx="6" transform="rotate(-8 400 410)" fill="none" stroke="#7c5cff" stroke-width="3.5999999999999996"/><rect x="388" y="356" width="84" height="84" rx="6" transform="rotate(8 400 410)" fill="none" stroke="#a855f7" stroke-width="3.5999999999999996" stroke-linecap="round" stroke-linejoin="round"/><text x="400" y="410" text-anchor="middle" dominant-baseline="middle" font-family="Arial Black, Arial, sans-serif" font-weight="900" font-size="60" fill="#fff" letter-spacing="1">×</text></g>
  <g>
        <path d="M250 320 L400 250 L550 320 L550 560 L400 630 L250 560 Z" fill="#16131f" stroke="#a855f7" stroke-opacity="0.55" stroke-width="2"/>
        <path d="M250 320 L400 390 L550 320 M400 390 L400 630" fill="none" stroke="#a855f7" stroke-opacity="0.55" stroke-width="2"/></g>
  <g><rect x="328" y="374" width="84" height="84" rx="6" transform="rotate(-8 400 410)" fill="none" stroke="#7c5cff" stroke-width="3.5999999999999996"/><rect x="388" y="356" width="84" height="84" rx="6" transform="rotate(8 400 410)" fill="none" stroke="#a855f7" stroke-width="3.5999999999999996" stroke-linecap="round" stroke-linejoin="round"/><text x="400" y="410" text-anchor="middle" dominant-baseline="middle" font-family="Arial Black, Arial, sans-serif" font-weight="900" font-size="60" fill="#fff" letter-spacing="1">×</text></g>
  <text x="40" y="60" font-family="Arial, sans-serif" font-weight="900" font-size="26" letter-spacing="3" fill="#e6e9f2">LEOPARD<tspan fill="#a855f7">Ø</tspan></text>
  <text x="40" y="752" font-family="Arial, sans-serif" font-weight="800" font-size="22" fill="#cbd2e0">Vinyl Lover Bundle</text>
  <text x="760" y="752" text-anchor="end" font-family="monospace" font-size="14" letter-spacing="2" fill="#6b7280">BUNDLE</text>
</svg>