<svg xmlns="http://www.w3.org/2000/svg" viewBox="0 0 800 800" width="800" height="800">
  <defs>
    <radialGradient id="bg" cx="50%" cy="34%" r="75%">
      <stop offset="0%" stop-color="#141022"/><stop offset="55%" stop-color="#0a0812"/><stop offset="100%" stop-color="#04050a"/>
    </radialGradient>
    <radialGradient id="halo" cx="50%" cy="42%" r="52%">
      <stop offset="0%" stop-color="#22d3ee" stop-opacity="0.26"/><stop offset="100%" stop-color="#22d3ee" stop-opacity="0"/>
    </radialGradient>
    <linearGradient id="fab" x1="0" y1="0" x2="0" y2="1">
      <stop offset="0%" stop-color="#272036"/><stop offset="52%" stop-color="#171122"/><stop offset="100%" stop-color="#090610"/>
    </linearGradient>
    <linearGradient id="toplight" x1="0" y1="0" x2="0" y2="1">
      <stop offset="0%" stop-color="#ffffff" stop-opacity="0.11"/><stop offset="44%" stop-color="#ffffff" stop-opacity="0"/>
    </linearGradient>
    <radialGradient id="vig" cx="50%" cy="44%" r="62%">
      <stop offset="0%" stop-color="#04050a" stop-opacity="0"/><stop offset="76%" stop-color="#04050a" stop-opacity="0"/><stop offset="100%" stop-color="#04050a" stop-opacity="0.55"/>
    </radialGradient>
    <filter id="glow" x="-40%" y="-40%" width="180%" height="180%"><feGaussianBlur stdDeviation="4"/></filter>
    <filter id="soft" x="-60%" y="-60%" width="220%" height="220%"><feGaussianBlur stdDeviation="14"/></filter>
    <filter id="rim" x="-35%" y="-35%" width="170%" height="170%"><feDropShadow dx="0" dy="0" stdDeviation="9" flood-color="#22d3ee" flood-opacity="0.5"/></filter>
    <clipPath id="cp"><rect x="254" y="244" width="292" height="312" rx="10"/></clipPath>
  </defs>
  <rect width="800" height="800" fill="url(#bg)"/>
  <rect width="800" height="800" fill="url(#halo)"/>
  <ellipse cx="400" cy="696" rx="226" ry="40" fill="#22d3ee" opacity="0.14"/>
  <ellipse cx="400" cy="676" rx="166" ry="24" fill="#020308" opacity="0.7" filter="url(#soft)"/>
  <g filter="url(#rim)"><rect x="240" y="230" width="320" height="340" rx="16" fill="url(#fab)" stroke="#22d3ee" stroke-opacity="0.55" stroke-width="2"/></g>
  <g clip-path="url(#cp)">
    <rect x="316.7216" y="258.964" width="21.4912" height="282.072" rx="10.7456" fill="#ffffff" opacity="0.14"/><rect x="445.66880000000003" y="265.68" width="8.059199999999999" height="268.64" rx="4.029599999999999" fill="#ffffff" opacity="0.07"/>
    <g filter="url(#glow)" opacity="0.9"><path d="M332.84000000000003 292.544 H467.15999999999997 L507.456 332.84000000000003 V467.15999999999997 L467.15999999999997 507.456 H332.84000000000003 L292.544 467.15999999999997 V332.84000000000003 Z" fill="none" stroke="#22d3ee" stroke-width="4.029599999999999" stroke-linecap="round" stroke-linejoin="round"/><text x="400" y="400" text-anchor="middle" dominant-baseline="middle" font-family="Arial Black, Arial, sans-serif" font-weight="900" font-size="53.728" fill="#fff" letter-spacing="1">LØ</text></g>
    <g><path d="M332.84000000000003 292.544 H467.15999999999997 L507.456 332.84000000000003 V467.15999999999997 L467.15999999999997 507.456 H332.84000000000003 L292.544 467.15999999999997 V332.84000000000003 Z" fill="none" stroke="#22d3ee" stroke-width="4.029599999999999" stroke-linecap="round" stroke-linejoin="round"/><text x="400" y="400" text-anchor="middle" dominant-baseline="middle" font-family="Arial Black, Arial, sans-serif" font-weight="900" font-size="53.728" fill="#fff" letter-spacing="1">LØ</text></g>
  </g>
  <rect width="800" height="800" fill="url(#toplight)"/>
  <rect width="800" height="800" fill="url(#vig)"/>
  <text x="40" y="60" font-family="Arial, sans-serif" font-weight="900" font-size="26" letter-spacing="3" fill="#e6e9f2">LEOPARD<tspan fill="#22d3ee">Ø</tspan></text>
  <text x="40" y="752" font-family="Arial, sans-serif" font-weight="800" font-size="22" fill="#cbd2e0">Octagon Wall Clock</text>
  <text x="760" y="752" text-anchor="end" font-family="monospace" font-size="14" letter-spacing="2" fill="#6b7280">WALL CLOCK</text>
</svg>