<svg xmlns="http://www.w3.org/2000/svg" viewBox="0 0 800 800" width="800" height="800">
  <defs>
    <radialGradient id="bg" cx="50%" cy="34%" r="75%">
      <stop offset="0%" stop-color="#141022"/><stop offset="55%" stop-color="#0a0812"/><stop offset="100%" stop-color="#04050a"/>
    </radialGradient>
    <radialGradient id="halo" cx="50%" cy="42%" r="52%">
      <stop offset="0%" stop-color="#a855f7" stop-opacity="0.26"/><stop offset="100%" stop-color="#a855f7" stop-opacity="0"/>
    </radialGradient>
    <linearGradient id="fab" x1="0" y1="0" x2="0" y2="1">
      <stop offset="0%" stop-color="#1d1830"/><stop offset="55%" stop-color="#140f1f"/><stop offset="100%" stop-color="#0a0712"/>
    </linearGradient>
    <filter id="glow" x="-40%" y="-40%" width="180%" height="180%"><feGaussianBlur stdDeviation="4"/></filter>
    <clipPath id="cp"><rect x="350" y="214" width="100" height="372" rx="10"/></clipPath>
  </defs>
  <rect width="800" height="800" fill="url(#bg)"/>
  <rect width="800" height="800" fill="url(#halo)"/>
  <ellipse cx="400" cy="690" rx="230" ry="42" fill="#a855f7" opacity="0.16"/>
  <g><path d="M360 180 Q330 200 340 240 L340 560 Q330 600 360 620 L440 620 Q470 600 460 560 L460 240 Q470 200 440 180 Z" fill="url(#fab)" stroke="#a855f7" stroke-opacity="0.55" stroke-width="2"/></g>
  <g clip-path="url(#cp)">
    <g filter="url(#glow)" opacity="0.9"><ellipse cx="400" cy="400" rx="41.4" ry="15.64" transform="rotate(18 400 400)" fill="none" stroke="#a855f7" stroke-width="2" stroke-linecap="round" stroke-linejoin="round"/><ellipse cx="400" cy="400" rx="36.800000000000004" ry="13.799999999999999" transform="rotate(-34 400 400)" stroke="#7c5cff" fill="none" stroke-width="1.38"/><circle cx="400" cy="400" r="5.52" fill="#a855f7"/></g>
    <g><ellipse cx="400" cy="400" rx="41.4" ry="15.64" transform="rotate(18 400 400)" fill="none" stroke="#a855f7" stroke-width="2" stroke-linecap="round" stroke-linejoin="round"/><ellipse cx="400" cy="400" rx="36.800000000000004" ry="13.799999999999999" transform="rotate(-34 400 400)" stroke="#7c5cff" fill="none" stroke-width="1.38"/><circle cx="400" cy="400" r="5.52" fill="#a855f7"/></g>
  </g>
  <text x="40" y="60" font-family="Arial, sans-serif" font-weight="900" font-size="26" letter-spacing="3" fill="#e6e9f2">LEOPARD<tspan fill="#a855f7">Ø</tspan></text>
  <text x="40" y="752" font-family="Arial, sans-serif" font-weight="800" font-size="22" fill="#cbd2e0">Orbit Skate Deck</text>
  <text x="760" y="752" text-anchor="end" font-family="monospace" font-size="14" letter-spacing="2" fill="#6b7280">SKATE DECK</text>
</svg>