<svg xmlns="http://www.w3.org/2000/svg" viewBox="0 0 800 800" width="800" height="800">
  <defs>
    <radialGradient id="bg" cx="50%" cy="34%" r="75%">
      <stop offset="0%" stop-color="#141022"/><stop offset="55%" stop-color="#0a0812"/><stop offset="100%" stop-color="#04050a"/>
    </radialGradient>
    <radialGradient id="halo" cx="50%" cy="42%" r="50%">
      <stop offset="0%" stop-color="#ff6a00" stop-opacity="0.28"/><stop offset="100%" stop-color="#ff6a00" stop-opacity="0"/>
    </radialGradient>
    <filter id="glow" x="-30%" y="-30%" width="160%" height="160%"><feGaussianBlur stdDeviation="6"/></filter>
  </defs>
  <rect width="800" height="800" fill="url(#bg)"/>
  <rect width="800" height="800" fill="url(#halo)"/>
  <ellipse cx="400" cy="690" rx="230" ry="42" fill="#ff6a00" opacity="0.16"/>
  <g filter="url(#glow)" opacity="0.7"><circle cx="400" cy="372" r="39.2" fill="#ff6a00"/><rect x="281" y="428" width="16.8" height="56" fill="#0c0a14" stroke="#ff2d00" stroke-opacity="0.6"/><rect x="302.6363636363636" y="344.4810162362073" width="16.8" height="139.51898376379268" fill="#0c0a14" stroke="#ff2d00" stroke-opacity="0.6"/><rect x="324.27272727272725" y="316.706607593052" width="16.8" height="167.29339240694802" fill="#0c0a14" stroke="#ff2d00" stroke-opacity="0.6"/><rect x="345.9090909090909" y="363.2147463885217" width="16.8" height="120.78525361147834" fill="#0c0a14" stroke="#ff2d00" stroke-opacity="0.6"/><rect x="367.54545454545456" y="403.0363296207723" width="16.8" height="80.96367037922774" fill="#0c0a14" stroke="#ff2d00" stroke-opacity="0.6"/><rect x="389.1818181818182" y="329.949356434896" width="16.8" height="154.050643565104" fill="#0c0a14" stroke="#ff2d00" stroke-opacity="0.6"/><rect x="410.8181818181818" y="322.3060850222603" width="16.8" height="161.6939149777397" fill="#0c0a14" stroke="#ff2d00" stroke-opacity="0.6"/><rect x="432.4545454545455" y="385.2080012753913" width="16.8" height="98.79199872460866" fill="#0c0a14" stroke="#ff2d00" stroke-opacity="0.6"/><rect x="454.0909090909091" y="379.32865032794757" width="16.8" height="104.67134967205243" fill="#0c0a14" stroke="#ff2d00" stroke-opacity="0.6"/><rect x="475.72727272727275" y="320.35089485576293" width="16.8" height="163.64910514423707" fill="#0c0a14" stroke="#ff2d00" stroke-opacity="0.6"/><rect x="497.3636363636364" y="333.2233147323809" width="16.8" height="150.77668526761911" fill="#0c0a14" stroke="#ff2d00" stroke-opacity="0.6"/></g>
  <g><rect x="240" y="240" width="320" height="320" rx="16" fill="#16131f" stroke="#ff6a00" stroke-opacity="0.55" stroke-width="2"/></g>
  <g><circle cx="400" cy="372" r="39.2" fill="#ff6a00"/><rect x="281" y="428" width="16.8" height="56" fill="#0c0a14" stroke="#ff2d00" stroke-opacity="0.6"/><rect x="302.6363636363636" y="344.4810162362073" width="16.8" height="139.51898376379268" fill="#0c0a14" stroke="#ff2d00" stroke-opacity="0.6"/><rect x="324.27272727272725" y="316.706607593052" width="16.8" height="167.29339240694802" fill="#0c0a14" stroke="#ff2d00" stroke-opacity="0.6"/><rect x="345.9090909090909" y="363.2147463885217" width="16.8" height="120.78525361147834" fill="#0c0a14" stroke="#ff2d00" stroke-opacity="0.6"/><rect x="367.54545454545456" y="403.0363296207723" width="16.8" height="80.96367037922774" fill="#0c0a14" stroke="#ff2d00" stroke-opacity="0.6"/><rect x="389.1818181818182" y="329.949356434896" width="16.8" height="154.050643565104" fill="#0c0a14" stroke="#ff2d00" stroke-opacity="0.6"/><rect x="410.8181818181818" y="322.3060850222603" width="16.8" height="161.6939149777397" fill="#0c0a14" stroke="#ff2d00" stroke-opacity="0.6"/><rect x="432.4545454545455" y="385.2080012753913" width="16.8" height="98.79199872460866" fill="#0c0a14" stroke="#ff2d00" stroke-opacity="0.6"/><rect x="454.0909090909091" y="379.32865032794757" width="16.8" height="104.67134967205243" fill="#0c0a14" stroke="#ff2d00" stroke-opacity="0.6"/><rect x="475.72727272727275" y="320.35089485576293" width="16.8" height="163.64910514423707" fill="#0c0a14" stroke="#ff2d00" stroke-opacity="0.6"/><rect x="497.3636363636364" y="333.2233147323809" width="16.8" height="150.77668526761911" fill="#0c0a14" stroke="#ff2d00" stroke-opacity="0.6"/></g>
  <text x="40" y="60" font-family="Arial, sans-serif" font-weight="900" font-size="26" letter-spacing="3" fill="#e6e9f2">LEOPARD<tspan fill="#ff6a00">Ø</tspan></text>
  <text x="40" y="752" font-family="Arial, sans-serif" font-weight="800" font-size="22" fill="#cbd2e0">Skyline Doormat</text>
  <text x="760" y="752" text-anchor="end" font-family="monospace" font-size="14" letter-spacing="2" fill="#6b7280">DOORMAT</text>
</svg>