<svg xmlns="http://www.w3.org/2000/svg" viewBox="0 0 800 800" width="800" height="800">
  <defs>
    <radialGradient id="bg" cx="50%" cy="34%" r="75%">
      <stop offset="0%" stop-color="#141022"/><stop offset="55%" stop-color="#0a0812"/><stop offset="100%" stop-color="#04050a"/>
    </radialGradient>
    <radialGradient id="halo" cx="50%" cy="42%" r="50%">
      <stop offset="0%" stop-color="#a855f7" stop-opacity="0.28"/><stop offset="100%" stop-color="#a855f7" stop-opacity="0"/>
    </radialGradient>
    <filter id="glow" x="-30%" y="-30%" width="160%" height="160%"><feGaussianBlur stdDeviation="6"/></filter>
  </defs>
  <rect width="800" height="800" fill="url(#bg)"/>
  <rect width="800" height="800" fill="url(#halo)"/>
  <ellipse cx="400" cy="690" rx="230" ry="42" fill="#a855f7" opacity="0.16"/>
  <g filter="url(#glow)" opacity="0.7"><ellipse cx="400" cy="420" rx="99" ry="37.400000000000006" transform="rotate(18 400 420)" fill="none" stroke="#a855f7" stroke-width="3.3" stroke-linecap="round" stroke-linejoin="round"/><ellipse cx="400" cy="420" rx="88" ry="33" transform="rotate(-34 400 420)" stroke="#7c5cff" fill="none" stroke-width="3.3"/><circle cx="400" cy="420" r="13.2" fill="#a855f7"/></g>
  <g>
        <path d="M250 270 L320 230 Q400 200 480 230 L550 270 L610 350 L548 392 L548 610 Q400 642 252 610 L252 392 L190 350 Z" fill="#16131f" stroke="#a855f7" stroke-opacity="0.55" stroke-width="2"/>
        <path d="M320 230 Q400 320 480 230 L470 250 Q400 330 330 250 Z" fill="#0e0b16" stroke="#a855f7" stroke-opacity="0.55" stroke-width="2"/>
        <rect x="330" y="500" width="140" height="70" rx="10" fill="none" stroke="#a855f7" stroke-opacity="0.55" stroke-width="2"/></g>
  <g><ellipse cx="400" cy="420" rx="99" ry="37.400000000000006" transform="rotate(18 400 420)" fill="none" stroke="#a855f7" stroke-width="3.3" stroke-linecap="round" stroke-linejoin="round"/><ellipse cx="400" cy="420" rx="88" ry="33" transform="rotate(-34 400 420)" stroke="#7c5cff" fill="none" stroke-width="3.3"/><circle cx="400" cy="420" r="13.2" fill="#a855f7"/></g>
  <text x="40" y="60" font-family="Arial, sans-serif" font-weight="900" font-size="26" letter-spacing="3" fill="#e6e9f2">LEOPARD<tspan fill="#a855f7">Ø</tspan></text>
  <text x="40" y="752" font-family="Arial, sans-serif" font-weight="800" font-size="22" fill="#cbd2e0">Orbit Rings Hoodie</text>
  <text x="760" y="752" text-anchor="end" font-family="monospace" font-size="14" letter-spacing="2" fill="#6b7280">HOODIE</text>
</svg>