<svg xmlns="http://www.w3.org/2000/svg" viewBox="0 0 800 800" width="800" height="800">
  <defs>
    <radialGradient id="bg" cx="50%" cy="34%" r="75%">
      <stop offset="0%" stop-color="#141022"/><stop offset="55%" stop-color="#0a0812"/><stop offset="100%" stop-color="#04050a"/>
    </radialGradient>
    <radialGradient id="halo" cx="50%" cy="42%" r="52%">
      <stop offset="0%" stop-color="#ff6a00" stop-opacity="0.26"/><stop offset="100%" stop-color="#ff6a00" stop-opacity="0"/>
    </radialGradient>
    <linearGradient id="fab" x1="0" y1="0" x2="0" y2="1">
      <stop offset="0%" stop-color="#1d1830"/><stop offset="55%" stop-color="#140f1f"/><stop offset="100%" stop-color="#0a0712"/>
    </linearGradient>
    <filter id="glow" x="-40%" y="-40%" width="180%" height="180%"><feGaussianBlur stdDeviation="4"/></filter>
    <clipPath id="cp"><rect x="312" y="362" width="176" height="200" rx="10"/></clipPath>
  </defs>
  <rect width="800" height="800" fill="url(#bg)"/>
  <rect width="800" height="800" fill="url(#halo)"/>
  <ellipse cx="400" cy="690" rx="230" ry="42" fill="#ff6a00" opacity="0.16"/>
  <g>
        <path d="M250 270 L320 230 Q400 200 480 230 L550 270 L610 350 L548 392 L548 610 Q400 642 252 610 L252 392 L190 350 Z" fill="url(#fab)" stroke="#ff6a00" stroke-opacity="0.55" stroke-width="2"/>
        <path d="M320 230 Q400 320 480 230 L470 250 Q400 330 330 250 Z" fill="#0c0a14" stroke="#ff6a00" stroke-opacity="0.55" stroke-width="2"/>
        <rect x="330" y="500" width="140" height="70" rx="10" fill="none" stroke="#ff6a00" stroke-opacity="0.55" stroke-width="2"/></g>
  <g clip-path="url(#cp)">
    <g filter="url(#glow)" opacity="0.9"><text x="400" y="462" text-anchor="middle" dominant-baseline="middle" font-family="Arial Black, Arial, sans-serif" font-weight="900" font-size="89.05600000000001" fill="#ff6a00" letter-spacing="1">Ø</text><circle cx="351.424" cy="421.52" r="3.2384000000000004" fill="#ff2d00"/><circle cx="367.616" cy="405.328" r="3.2384000000000004" fill="#ff2d00"/><circle cx="383.808" cy="389.13599999999997" r="3.2384000000000004" fill="#ff2d00"/><circle cx="400" cy="421.52" r="3.2384000000000004" fill="#ff2d00"/><circle cx="416.192" cy="405.328" r="3.2384000000000004" fill="#ff2d00"/><circle cx="432.384" cy="389.13599999999997" r="3.2384000000000004" fill="#ff2d00"/><circle cx="448.576" cy="421.52" r="3.2384000000000004" fill="#ff2d00"/></g>
    <g><text x="400" y="462" text-anchor="middle" dominant-baseline="middle" font-family="Arial Black, Arial, sans-serif" font-weight="900" font-size="89.05600000000001" fill="#ff6a00" letter-spacing="1">Ø</text><circle cx="351.424" cy="421.52" r="3.2384000000000004" fill="#ff2d00"/><circle cx="367.616" cy="405.328" r="3.2384000000000004" fill="#ff2d00"/><circle cx="383.808" cy="389.13599999999997" r="3.2384000000000004" fill="#ff2d00"/><circle cx="400" cy="421.52" r="3.2384000000000004" fill="#ff2d00"/><circle cx="416.192" cy="405.328" r="3.2384000000000004" fill="#ff2d00"/><circle cx="432.384" cy="389.13599999999997" r="3.2384000000000004" fill="#ff2d00"/><circle cx="448.576" cy="421.52" r="3.2384000000000004" fill="#ff2d00"/></g>
  </g>
  <text x="40" y="60" font-family="Arial, sans-serif" font-weight="900" font-size="26" letter-spacing="3" fill="#e6e9f2">LEOPARD<tspan fill="#ff6a00">Ø</tspan></text>
  <text x="40" y="752" font-family="Arial, sans-serif" font-weight="800" font-size="22" fill="#cbd2e0">Flame Wordmark Hoodie</text>
  <text x="760" y="752" text-anchor="end" font-family="monospace" font-size="14" letter-spacing="2" fill="#6b7280">HOODIE</text>
</svg>