<svg xmlns="http://www.w3.org/2000/svg" viewBox="0 0 800 800" width="800" height="800">
  <defs>
    <radialGradient id="bg" cx="50%" cy="34%" r="75%">
      <stop offset="0%" stop-color="#141022"/><stop offset="55%" stop-color="#0a0812"/><stop offset="100%" stop-color="#04050a"/>
    </radialGradient>
    <radialGradient id="halo" cx="50%" cy="42%" r="50%">
      <stop offset="0%" stop-color="#a855f7" stop-opacity="0.28"/><stop offset="100%" stop-color="#a855f7" stop-opacity="0"/>
    </radialGradient>
    <filter id="glow" x="-30%" y="-30%" width="160%" height="160%"><feGaussianBlur stdDeviation="6"/></filter>
  </defs>
  <rect width="800" height="800" fill="url(#bg)"/>
  <rect width="800" height="800" fill="url(#halo)"/>
  <ellipse cx="400" cy="690" rx="230" ry="42" fill="#a855f7" opacity="0.16"/>
  <g filter="url(#glow)" opacity="0.7"><circle cx="400" cy="420" r="66.3" fill="none" stroke="#a855f7" stroke-width="2.34" stroke-linecap="round" stroke-linejoin="round"/><circle cx="400" cy="420" r="46.8" stroke="#7c5cff" fill="none" stroke-width="1.9500000000000002"/><ellipse cx="442.9" cy="420" rx="7.800000000000001" ry="20.28" transform="rotate(90 442.9 420)" stroke="#a855f7" fill="none" stroke-width="1.56"/><ellipse cx="430.3348809129029" cy="450.3348809129029" rx="7.800000000000001" ry="20.28" transform="rotate(135 430.3348809129029 450.3348809129029)" stroke="#a855f7" fill="none" stroke-width="1.56"/><ellipse cx="400" cy="462.9" rx="7.800000000000001" ry="20.28" transform="rotate(180 400 462.9)" stroke="#a855f7" fill="none" stroke-width="1.56"/><ellipse cx="369.6651190870971" cy="450.3348809129029" rx="7.800000000000001" ry="20.28" transform="rotate(225 369.6651190870971 450.3348809129029)" stroke="#a855f7" fill="none" stroke-width="1.56"/><ellipse cx="357.1" cy="420" rx="7.800000000000001" ry="20.28" transform="rotate(270 357.1 420)" stroke="#a855f7" fill="none" stroke-width="1.56"/><ellipse cx="369.6651190870971" cy="389.6651190870971" rx="7.800000000000001" ry="20.28" transform="rotate(315 369.6651190870971 389.6651190870971)" stroke="#a855f7" fill="none" stroke-width="1.56"/><ellipse cx="400" cy="377.1" rx="7.800000000000001" ry="20.28" transform="rotate(360 400 377.1)" stroke="#a855f7" fill="none" stroke-width="1.56"/><ellipse cx="430.33488091290286" cy="389.6651190870971" rx="7.800000000000001" ry="20.28" transform="rotate(405 430.33488091290286 389.6651190870971)" stroke="#a855f7" fill="none" stroke-width="1.56"/><circle cx="400" cy="420" r="7.800000000000001" fill="#a855f7"/></g>
  <g>
        <rect x="372" y="200" width="56" height="50" rx="8" fill="#0e0b16" stroke="#a855f7" stroke-opacity="0.55" stroke-width="2"/>
        <path d="M340 250 L460 250 L470 320 L470 620 Q400 645 330 620 L330 320 Z" fill="#16131f" stroke="#a855f7" stroke-opacity="0.55" stroke-width="2"/></g>
  <g><circle cx="400" cy="420" r="66.3" fill="none" stroke="#a855f7" stroke-width="2.34" stroke-linecap="round" stroke-linejoin="round"/><circle cx="400" cy="420" r="46.8" stroke="#7c5cff" fill="none" stroke-width="1.9500000000000002"/><ellipse cx="442.9" cy="420" rx="7.800000000000001" ry="20.28" transform="rotate(90 442.9 420)" stroke="#a855f7" fill="none" stroke-width="1.56"/><ellipse cx="430.3348809129029" cy="450.3348809129029" rx="7.800000000000001" ry="20.28" transform="rotate(135 430.3348809129029 450.3348809129029)" stroke="#a855f7" fill="none" stroke-width="1.56"/><ellipse cx="400" cy="462.9" rx="7.800000000000001" ry="20.28" transform="rotate(180 400 462.9)" stroke="#a855f7" fill="none" stroke-width="1.56"/><ellipse cx="369.6651190870971" cy="450.3348809129029" rx="7.800000000000001" ry="20.28" transform="rotate(225 369.6651190870971 450.3348809129029)" stroke="#a855f7" fill="none" stroke-width="1.56"/><ellipse cx="357.1" cy="420" rx="7.800000000000001" ry="20.28" transform="rotate(270 357.1 420)" stroke="#a855f7" fill="none" stroke-width="1.56"/><ellipse cx="369.6651190870971" cy="389.6651190870971" rx="7.800000000000001" ry="20.28" transform="rotate(315 369.6651190870971 389.6651190870971)" stroke="#a855f7" fill="none" stroke-width="1.56"/><ellipse cx="400" cy="377.1" rx="7.800000000000001" ry="20.28" transform="rotate(360 400 377.1)" stroke="#a855f7" fill="none" stroke-width="1.56"/><ellipse cx="430.33488091290286" cy="389.6651190870971" rx="7.800000000000001" ry="20.28" transform="rotate(405 430.33488091290286 389.6651190870971)" stroke="#a855f7" fill="none" stroke-width="1.56"/><circle cx="400" cy="420" r="7.800000000000001" fill="#a855f7"/></g>
  <text x="40" y="60" font-family="Arial, sans-serif" font-weight="900" font-size="26" letter-spacing="3" fill="#e6e9f2">LEOPARD<tspan fill="#a855f7">Ø</tspan></text>
  <text x="40" y="752" font-family="Arial, sans-serif" font-weight="800" font-size="22" fill="#cbd2e0">Mandala Incense Holder</text>
  <text x="760" y="752" text-anchor="end" font-family="monospace" font-size="14" letter-spacing="2" fill="#6b7280">INCENSE</text>
</svg>