<svg xmlns="http://www.w3.org/2000/svg" viewBox="0 0 800 800" width="800" height="800">
  <defs>
    <radialGradient id="bg" cx="50%" cy="34%" r="75%">
      <stop offset="0%" stop-color="#141022"/><stop offset="55%" stop-color="#0a0812"/><stop offset="100%" stop-color="#04050a"/>
    </radialGradient>
    <radialGradient id="halo" cx="50%" cy="42%" r="52%">
      <stop offset="0%" stop-color="#a855f7" stop-opacity="0.26"/><stop offset="100%" stop-color="#a855f7" stop-opacity="0"/>
    </radialGradient>
    <linearGradient id="fab" x1="0" y1="0" x2="0" y2="1">
      <stop offset="0%" stop-color="#1d1830"/><stop offset="55%" stop-color="#140f1f"/><stop offset="100%" stop-color="#0a0712"/>
    </linearGradient>
    <filter id="glow" x="-40%" y="-40%" width="180%" height="180%"><feGaussianBlur stdDeviation="4"/></filter>
    <clipPath id="cp"><rect x="340" y="306" width="120" height="286" rx="10"/></clipPath>
  </defs>
  <rect width="800" height="800" fill="url(#bg)"/>
  <rect width="800" height="800" fill="url(#halo)"/>
  <ellipse cx="400" cy="690" rx="230" ry="42" fill="#a855f7" opacity="0.16"/>
  <g>
        <rect x="372" y="200" width="56" height="50" rx="8" fill="#0c0a14" stroke="#a855f7" stroke-opacity="0.55" stroke-width="2"/>
        <path d="M340 250 L460 250 L470 320 L470 620 Q400 645 330 620 L330 320 Z" fill="url(#fab)" stroke="#a855f7" stroke-opacity="0.55" stroke-width="2"/></g>
  <g clip-path="url(#cp)">
    <g filter="url(#glow)" opacity="0.9"><circle cx="400" cy="449" r="46.92" fill="none" stroke="#a855f7" stroke-width="2" stroke-linecap="round" stroke-linejoin="round"/><circle cx="400" cy="449" r="33.12" stroke="#7c5cff" fill="none" stroke-width="1.3800000000000001"/><ellipse cx="430.36" cy="449" rx="5.5200000000000005" ry="14.352000000000002" transform="rotate(90 430.36 449)" stroke="#a855f7" fill="none" stroke-width="1.104"/><ellipse cx="421.4677618768236" cy="470.4677618768236" rx="5.5200000000000005" ry="14.352000000000002" transform="rotate(135 421.4677618768236 470.4677618768236)" stroke="#a855f7" fill="none" stroke-width="1.104"/><ellipse cx="400" cy="479.36" rx="5.5200000000000005" ry="14.352000000000002" transform="rotate(180 400 479.36)" stroke="#a855f7" fill="none" stroke-width="1.104"/><ellipse cx="378.5322381231764" cy="470.4677618768236" rx="5.5200000000000005" ry="14.352000000000002" transform="rotate(225 378.5322381231764 470.4677618768236)" stroke="#a855f7" fill="none" stroke-width="1.104"/><ellipse cx="369.64" cy="449" rx="5.5200000000000005" ry="14.352000000000002" transform="rotate(270 369.64 449)" stroke="#a855f7" fill="none" stroke-width="1.104"/><ellipse cx="378.5322381231764" cy="427.5322381231764" rx="5.5200000000000005" ry="14.352000000000002" transform="rotate(315 378.5322381231764 427.5322381231764)" stroke="#a855f7" fill="none" stroke-width="1.104"/><ellipse cx="400" cy="418.64" rx="5.5200000000000005" ry="14.352000000000002" transform="rotate(360 400 418.64)" stroke="#a855f7" fill="none" stroke-width="1.104"/><ellipse cx="421.4677618768236" cy="427.5322381231764" rx="5.5200000000000005" ry="14.352000000000002" transform="rotate(405 421.4677618768236 427.5322381231764)" stroke="#a855f7" fill="none" stroke-width="1.104"/><circle cx="400" cy="449" r="5.5200000000000005" fill="#a855f7"/></g>
    <g><circle cx="400" cy="449" r="46.92" fill="none" stroke="#a855f7" stroke-width="2" stroke-linecap="round" stroke-linejoin="round"/><circle cx="400" cy="449" r="33.12" stroke="#7c5cff" fill="none" stroke-width="1.3800000000000001"/><ellipse cx="430.36" cy="449" rx="5.5200000000000005" ry="14.352000000000002" transform="rotate(90 430.36 449)" stroke="#a855f7" fill="none" stroke-width="1.104"/><ellipse cx="421.4677618768236" cy="470.4677618768236" rx="5.5200000000000005" ry="14.352000000000002" transform="rotate(135 421.4677618768236 470.4677618768236)" stroke="#a855f7" fill="none" stroke-width="1.104"/><ellipse cx="400" cy="479.36" rx="5.5200000000000005" ry="14.352000000000002" transform="rotate(180 400 479.36)" stroke="#a855f7" fill="none" stroke-width="1.104"/><ellipse cx="378.5322381231764" cy="470.4677618768236" rx="5.5200000000000005" ry="14.352000000000002" transform="rotate(225 378.5322381231764 470.4677618768236)" stroke="#a855f7" fill="none" stroke-width="1.104"/><ellipse cx="369.64" cy="449" rx="5.5200000000000005" ry="14.352000000000002" transform="rotate(270 369.64 449)" stroke="#a855f7" fill="none" stroke-width="1.104"/><ellipse cx="378.5322381231764" cy="427.5322381231764" rx="5.5200000000000005" ry="14.352000000000002" transform="rotate(315 378.5322381231764 427.5322381231764)" stroke="#a855f7" fill="none" stroke-width="1.104"/><ellipse cx="400" cy="418.64" rx="5.5200000000000005" ry="14.352000000000002" transform="rotate(360 400 418.64)" stroke="#a855f7" fill="none" stroke-width="1.104"/><ellipse cx="421.4677618768236" cy="427.5322381231764" rx="5.5200000000000005" ry="14.352000000000002" transform="rotate(405 421.4677618768236 427.5322381231764)" stroke="#a855f7" fill="none" stroke-width="1.104"/><circle cx="400" cy="449" r="5.5200000000000005" fill="#a855f7"/></g>
  </g>
  <text x="40" y="60" font-family="Arial, sans-serif" font-weight="900" font-size="26" letter-spacing="3" fill="#e6e9f2">LEOPARD<tspan fill="#a855f7">Ø</tspan></text>
  <text x="40" y="752" font-family="Arial, sans-serif" font-weight="800" font-size="22" fill="#cbd2e0">Mandala Incense Holder</text>
  <text x="760" y="752" text-anchor="end" font-family="monospace" font-size="14" letter-spacing="2" fill="#6b7280">INCENSE</text>
</svg>