<svg xmlns="http://www.w3.org/2000/svg" viewBox="0 0 800 800" width="800" height="800">
  <defs>
    <radialGradient id="bg" cx="50%" cy="34%" r="75%">
      <stop offset="0%" stop-color="#141022"/><stop offset="55%" stop-color="#0a0812"/><stop offset="100%" stop-color="#04050a"/>
    </radialGradient>
    <radialGradient id="halo" cx="50%" cy="42%" r="52%">
      <stop offset="0%" stop-color="#3b82f6" stop-opacity="0.26"/><stop offset="100%" stop-color="#3b82f6" stop-opacity="0"/>
    </radialGradient>
    <linearGradient id="fab" x1="0" y1="0" x2="0" y2="1">
      <stop offset="0%" stop-color="#1d1830"/><stop offset="55%" stop-color="#140f1f"/><stop offset="100%" stop-color="#0a0712"/>
    </linearGradient>
    <filter id="glow" x="-40%" y="-40%" width="180%" height="180%"><feGaussianBlur stdDeviation="4"/></filter>
    <clipPath id="cp"><rect x="276" y="264" width="248" height="282" rx="10"/></clipPath>
  </defs>
  <rect width="800" height="800" fill="url(#bg)"/>
  <rect width="800" height="800" fill="url(#halo)"/>
  <ellipse cx="400" cy="690" rx="230" ry="42" fill="#3b82f6" opacity="0.16"/>
  <g><path d="M250 250 Q400 230 550 250 L560 560 Q400 600 240 560 Z" fill="url(#fab)" stroke="#3b82f6" stroke-opacity="0.55" stroke-width="2"/></g>
  <g clip-path="url(#cp)">
    <g filter="url(#glow)" opacity="0.9"><rect x="308.736" y="347.96" width="8.556" height="114.08" fill="#3b82f6"/><rect x="318.8764444444444" y="347.96" width="3.4223999999999997" height="114.08" fill="#3b82f6"/><rect x="329.0168888888889" y="347.96" width="3.4223999999999997" height="114.08" fill="#3b82f6"/><rect x="339.1573333333333" y="347.96" width="8.556" height="114.08" fill="#3b82f6"/><rect x="349.29777777777775" y="347.96" width="3.4223999999999997" height="114.08" fill="#3b82f6"/><rect x="359.43822222222224" y="347.96" width="3.4223999999999997" height="114.08" fill="#3b82f6"/><rect x="369.57866666666666" y="347.96" width="8.556" height="114.08" fill="#3b82f6"/><rect x="379.71911111111115" y="347.96" width="3.4223999999999997" height="114.08" fill="#3b82f6"/><rect x="389.8595555555556" y="347.96" width="3.4223999999999997" height="114.08" fill="#3b82f6"/><rect x="400" y="347.96" width="8.556" height="114.08" fill="#3b82f6"/><rect x="410.1404444444445" y="347.96" width="3.4223999999999997" height="114.08" fill="#3b82f6"/><rect x="420.2808888888889" y="347.96" width="3.4223999999999997" height="114.08" fill="#3b82f6"/><rect x="430.42133333333334" y="347.96" width="8.556" height="114.08" fill="#3b82f6"/><rect x="440.5617777777778" y="347.96" width="3.4223999999999997" height="114.08" fill="#3b82f6"/><rect x="450.70222222222225" y="347.96" width="3.4223999999999997" height="114.08" fill="#3b82f6"/><rect x="460.8426666666667" y="347.96" width="8.556" height="114.08" fill="#3b82f6"/><rect x="470.98311111111116" y="347.96" width="3.4223999999999997" height="114.08" fill="#3b82f6"/><rect x="481.1235555555556" y="347.96" width="3.4223999999999997" height="114.08" fill="#3b82f6"/></g>
    <g><rect x="308.736" y="347.96" width="8.556" height="114.08" fill="#3b82f6"/><rect x="318.8764444444444" y="347.96" width="3.4223999999999997" height="114.08" fill="#3b82f6"/><rect x="329.0168888888889" y="347.96" width="3.4223999999999997" height="114.08" fill="#3b82f6"/><rect x="339.1573333333333" y="347.96" width="8.556" height="114.08" fill="#3b82f6"/><rect x="349.29777777777775" y="347.96" width="3.4223999999999997" height="114.08" fill="#3b82f6"/><rect x="359.43822222222224" y="347.96" width="3.4223999999999997" height="114.08" fill="#3b82f6"/><rect x="369.57866666666666" y="347.96" width="8.556" height="114.08" fill="#3b82f6"/><rect x="379.71911111111115" y="347.96" width="3.4223999999999997" height="114.08" fill="#3b82f6"/><rect x="389.8595555555556" y="347.96" width="3.4223999999999997" height="114.08" fill="#3b82f6"/><rect x="400" y="347.96" width="8.556" height="114.08" fill="#3b82f6"/><rect x="410.1404444444445" y="347.96" width="3.4223999999999997" height="114.08" fill="#3b82f6"/><rect x="420.2808888888889" y="347.96" width="3.4223999999999997" height="114.08" fill="#3b82f6"/><rect x="430.42133333333334" y="347.96" width="8.556" height="114.08" fill="#3b82f6"/><rect x="440.5617777777778" y="347.96" width="3.4223999999999997" height="114.08" fill="#3b82f6"/><rect x="450.70222222222225" y="347.96" width="3.4223999999999997" height="114.08" fill="#3b82f6"/><rect x="460.8426666666667" y="347.96" width="8.556" height="114.08" fill="#3b82f6"/><rect x="470.98311111111116" y="347.96" width="3.4223999999999997" height="114.08" fill="#3b82f6"/><rect x="481.1235555555556" y="347.96" width="3.4223999999999997" height="114.08" fill="#3b82f6"/></g>
  </g>
  <text x="40" y="60" font-family="Arial, sans-serif" font-weight="900" font-size="26" letter-spacing="3" fill="#e6e9f2">LEOPARD<tspan fill="#3b82f6">Ø</tspan></text>
  <text x="40" y="752" font-family="Arial, sans-serif" font-weight="800" font-size="22" fill="#cbd2e0">Barcode Lanyard</text>
  <text x="760" y="752" text-anchor="end" font-family="monospace" font-size="14" letter-spacing="2" fill="#6b7280">LANYARD</text>
</svg>