<svg xmlns="http://www.w3.org/2000/svg" viewBox="0 0 800 800" width="800" height="800">
  <defs>
    <radialGradient id="bg" cx="50%" cy="34%" r="75%">
      <stop offset="0%" stop-color="#141022"/><stop offset="55%" stop-color="#0a0812"/><stop offset="100%" stop-color="#04050a"/>
    </radialGradient>
    <radialGradient id="halo" cx="50%" cy="42%" r="50%">
      <stop offset="0%" stop-color="#3b82f6" stop-opacity="0.28"/><stop offset="100%" stop-color="#3b82f6" stop-opacity="0"/>
    </radialGradient>
    <filter id="glow" x="-30%" y="-30%" width="160%" height="160%"><feGaussianBlur stdDeviation="6"/></filter>
  </defs>
  <rect width="800" height="800" fill="url(#bg)"/>
  <rect width="800" height="800" fill="url(#halo)"/>
  <ellipse cx="400" cy="690" rx="230" ry="42" fill="#3b82f6" opacity="0.16"/>
  <g filter="url(#glow)" opacity="0.7"><rect x="296" y="345" width="9.75" height="130" fill="#3b82f6"/><rect x="307.55555555555554" y="345" width="3.9" height="130" fill="#3b82f6"/><rect x="319.1111111111111" y="345" width="3.9" height="130" fill="#3b82f6"/><rect x="330.6666666666667" y="345" width="9.75" height="130" fill="#3b82f6"/><rect x="342.22222222222223" y="345" width="3.9" height="130" fill="#3b82f6"/><rect x="353.77777777777777" y="345" width="3.9" height="130" fill="#3b82f6"/><rect x="365.3333333333333" y="345" width="9.75" height="130" fill="#3b82f6"/><rect x="376.8888888888889" y="345" width="3.9" height="130" fill="#3b82f6"/><rect x="388.44444444444446" y="345" width="3.9" height="130" fill="#3b82f6"/><rect x="400" y="345" width="9.75" height="130" fill="#3b82f6"/><rect x="411.55555555555554" y="345" width="3.9" height="130" fill="#3b82f6"/><rect x="423.1111111111111" y="345" width="3.9" height="130" fill="#3b82f6"/><rect x="434.66666666666663" y="345" width="9.75" height="130" fill="#3b82f6"/><rect x="446.22222222222223" y="345" width="3.9" height="130" fill="#3b82f6"/><rect x="457.77777777777777" y="345" width="3.9" height="130" fill="#3b82f6"/><rect x="469.33333333333337" y="345" width="9.75" height="130" fill="#3b82f6"/><rect x="480.8888888888889" y="345" width="3.9" height="130" fill="#3b82f6"/><rect x="492.44444444444446" y="345" width="3.9" height="130" fill="#3b82f6"/></g>
  <g><path d="M250 250 Q400 230 550 250 L560 560 Q400 600 240 560 Z" fill="#16131f" stroke="#3b82f6" stroke-opacity="0.55" stroke-width="2"/></g>
  <g><rect x="296" y="345" width="9.75" height="130" fill="#3b82f6"/><rect x="307.55555555555554" y="345" width="3.9" height="130" fill="#3b82f6"/><rect x="319.1111111111111" y="345" width="3.9" height="130" fill="#3b82f6"/><rect x="330.6666666666667" y="345" width="9.75" height="130" fill="#3b82f6"/><rect x="342.22222222222223" y="345" width="3.9" height="130" fill="#3b82f6"/><rect x="353.77777777777777" y="345" width="3.9" height="130" fill="#3b82f6"/><rect x="365.3333333333333" y="345" width="9.75" height="130" fill="#3b82f6"/><rect x="376.8888888888889" y="345" width="3.9" height="130" fill="#3b82f6"/><rect x="388.44444444444446" y="345" width="3.9" height="130" fill="#3b82f6"/><rect x="400" y="345" width="9.75" height="130" fill="#3b82f6"/><rect x="411.55555555555554" y="345" width="3.9" height="130" fill="#3b82f6"/><rect x="423.1111111111111" y="345" width="3.9" height="130" fill="#3b82f6"/><rect x="434.66666666666663" y="345" width="9.75" height="130" fill="#3b82f6"/><rect x="446.22222222222223" y="345" width="3.9" height="130" fill="#3b82f6"/><rect x="457.77777777777777" y="345" width="3.9" height="130" fill="#3b82f6"/><rect x="469.33333333333337" y="345" width="9.75" height="130" fill="#3b82f6"/><rect x="480.8888888888889" y="345" width="3.9" height="130" fill="#3b82f6"/><rect x="492.44444444444446" y="345" width="3.9" height="130" fill="#3b82f6"/></g>
  <text x="40" y="60" font-family="Arial, sans-serif" font-weight="900" font-size="26" letter-spacing="3" fill="#e6e9f2">LEOPARD<tspan fill="#3b82f6">Ø</tspan></text>
  <text x="40" y="752" font-family="Arial, sans-serif" font-weight="800" font-size="22" fill="#cbd2e0">Barcode Lanyard</text>
  <text x="760" y="752" text-anchor="end" font-family="monospace" font-size="14" letter-spacing="2" fill="#6b7280">LANYARD</text>
</svg>