<svg xmlns="http://www.w3.org/2000/svg" viewBox="0 0 800 800" width="800" height="800">
  <defs>
    <radialGradient id="bg" cx="50%" cy="34%" r="75%">
      <stop offset="0%" stop-color="#141022"/><stop offset="55%" stop-color="#0a0812"/><stop offset="100%" stop-color="#04050a"/>
    </radialGradient>
    <radialGradient id="halo" cx="50%" cy="42%" r="52%">
      <stop offset="0%" stop-color="#22d3ee" stop-opacity="0.26"/><stop offset="100%" stop-color="#22d3ee" stop-opacity="0"/>
    </radialGradient>
    <linearGradient id="fab" x1="0" y1="0" x2="0" y2="1">
      <stop offset="0%" stop-color="#272036"/><stop offset="52%" stop-color="#171122"/><stop offset="100%" stop-color="#090610"/>
    </linearGradient>
    <linearGradient id="toplight" x1="0" y1="0" x2="0" y2="1">
      <stop offset="0%" stop-color="#ffffff" stop-opacity="0.11"/><stop offset="44%" stop-color="#ffffff" stop-opacity="0"/>
    </linearGradient>
    <radialGradient id="vig" cx="50%" cy="44%" r="62%">
      <stop offset="0%" stop-color="#04050a" stop-opacity="0"/><stop offset="76%" stop-color="#04050a" stop-opacity="0"/><stop offset="100%" stop-color="#04050a" stop-opacity="0.55"/>
    </radialGradient>
    <filter id="glow" x="-40%" y="-40%" width="180%" height="180%"><feGaussianBlur stdDeviation="4"/></filter>
    <filter id="soft" x="-60%" y="-60%" width="220%" height="220%"><feGaussianBlur stdDeviation="14"/></filter>
    <clipPath id="cp"><rect x="294" y="314" width="172" height="212" rx="10"/></clipPath>
  </defs>
  <rect width="800" height="800" fill="url(#bg)"/>
  <rect width="800" height="800" fill="url(#halo)"/>
  <ellipse cx="400" cy="696" rx="226" ry="40" fill="#22d3ee" opacity="0.14"/>
  <ellipse cx="400" cy="676" rx="166" ry="24" fill="#020308" opacity="0.7" filter="url(#soft)"/>
  <g>
        <rect x="280" y="300" width="200" height="240" rx="20" fill="url(#fab)" stroke="#22d3ee" stroke-opacity="0.55" stroke-width="2"/>
        <path d="M480 350 Q560 350 560 430 Q560 500 480 500" fill="none" stroke="#22d3ee" stroke-opacity="0.55" stroke-width="2" stroke-width="16"/></g>
  <g clip-path="url(#cp)">
    <rect x="330.9456" y="336.924" width="12.6592" height="166.15200000000002" rx="6.3296" fill="#ffffff" opacity="0.14"/><rect x="406.9008" y="340.88" width="4.7472" height="158.24" rx="2.3736" fill="#ffffff" opacity="0.07"/>
    <g filter="url(#glow)" opacity="0.9"><path d="M312.748 404.176 L372.088 392.308 L376.044 427.912 L312.748 439.78 Z" fill="#22d3ee" fill-opacity="0.3" stroke="#22d3ee" stroke-width="2.3736"/><path d="M447.252 404.176 L387.912 392.308 L383.956 427.912 L447.252 439.78 Z" fill="#3b82f6" fill-opacity="0.3" stroke="#3b82f6" stroke-width="2.3736"/></g>
    <g><path d="M312.748 404.176 L372.088 392.308 L376.044 427.912 L312.748 439.78 Z" fill="#22d3ee" fill-opacity="0.3" stroke="#22d3ee" stroke-width="2.3736"/><path d="M447.252 404.176 L387.912 392.308 L383.956 427.912 L447.252 439.78 Z" fill="#3b82f6" fill-opacity="0.3" stroke="#3b82f6" stroke-width="2.3736"/></g>
  </g>
  <rect width="800" height="800" fill="url(#toplight)"/>
  <rect width="800" height="800" fill="url(#vig)"/>
  <text x="40" y="60" font-family="Arial, sans-serif" font-weight="900" font-size="26" letter-spacing="3" fill="#e6e9f2">LEOPARD<tspan fill="#22d3ee">Ø</tspan></text>
  <text x="40" y="752" font-family="Arial, sans-serif" font-weight="800" font-size="22" fill="#cbd2e0">Neon Visor Mug</text>
  <text x="760" y="752" text-anchor="end" font-family="monospace" font-size="14" letter-spacing="2" fill="#6b7280">11OZ MUG</text>
</svg>