<svg xmlns="http://www.w3.org/2000/svg" viewBox="0 0 800 800" width="800" height="800">
  <defs>
    <radialGradient id="bg" cx="50%" cy="34%" r="75%">
      <stop offset="0%" stop-color="#141022"/><stop offset="55%" stop-color="#0a0812"/><stop offset="100%" stop-color="#04050a"/>
    </radialGradient>
    <radialGradient id="halo" cx="50%" cy="42%" r="52%">
      <stop offset="0%" stop-color="#22d3ee" stop-opacity="0.26"/><stop offset="100%" stop-color="#22d3ee" stop-opacity="0"/>
    </radialGradient>
    <linearGradient id="fab" x1="0" y1="0" x2="0" y2="1">
      <stop offset="0%" stop-color="#1d1830"/><stop offset="55%" stop-color="#140f1f"/><stop offset="100%" stop-color="#0a0712"/>
    </linearGradient>
    <filter id="glow" x="-40%" y="-40%" width="180%" height="180%"><feGaussianBlur stdDeviation="4"/></filter>
    <clipPath id="cp"><rect x="294" y="314" width="172" height="212" rx="10"/></clipPath>
  </defs>
  <rect width="800" height="800" fill="url(#bg)"/>
  <rect width="800" height="800" fill="url(#halo)"/>
  <ellipse cx="400" cy="690" rx="230" ry="42" fill="#22d3ee" opacity="0.16"/>
  <g>
        <rect x="280" y="300" width="200" height="240" rx="20" fill="url(#fab)" stroke="#22d3ee" stroke-opacity="0.55" stroke-width="2"/>
        <path d="M480 350 Q560 350 560 430 Q560 500 480 500" fill="none" stroke="#22d3ee" stroke-opacity="0.55" stroke-width="2" stroke-width="16"/></g>
  <g clip-path="url(#cp)">
    <g filter="url(#glow)" opacity="0.9"><path d="M312.748 404.176 L372.088 392.308 L376.044 427.912 L312.748 439.78 Z" fill="#22d3ee" fill-opacity="0.3" stroke="#22d3ee" stroke-width="2.3736"/><path d="M447.252 404.176 L387.912 392.308 L383.956 427.912 L447.252 439.78 Z" fill="#3b82f6" fill-opacity="0.3" stroke="#3b82f6" stroke-width="2.3736"/></g>
    <g><path d="M312.748 404.176 L372.088 392.308 L376.044 427.912 L312.748 439.78 Z" fill="#22d3ee" fill-opacity="0.3" stroke="#22d3ee" stroke-width="2.3736"/><path d="M447.252 404.176 L387.912 392.308 L383.956 427.912 L447.252 439.78 Z" fill="#3b82f6" fill-opacity="0.3" stroke="#3b82f6" stroke-width="2.3736"/></g>
  </g>
  <text x="40" y="60" font-family="Arial, sans-serif" font-weight="900" font-size="26" letter-spacing="3" fill="#e6e9f2">LEOPARD<tspan fill="#22d3ee">Ø</tspan></text>
  <text x="40" y="752" font-family="Arial, sans-serif" font-weight="800" font-size="22" fill="#cbd2e0">Neon Visor Mug</text>
  <text x="760" y="752" text-anchor="end" font-family="monospace" font-size="14" letter-spacing="2" fill="#6b7280">11OZ MUG</text>
</svg>