<svg xmlns="http://www.w3.org/2000/svg" viewBox="0 0 800 800" width="800" height="800">
  <defs>
    <radialGradient id="bg" cx="50%" cy="34%" r="75%">
      <stop offset="0%" stop-color="#141022"/><stop offset="55%" stop-color="#0a0812"/><stop offset="100%" stop-color="#04050a"/>
    </radialGradient>
    <radialGradient id="halo" cx="50%" cy="42%" r="50%">
      <stop offset="0%" stop-color="#22d3ee" stop-opacity="0.28"/><stop offset="100%" stop-color="#22d3ee" stop-opacity="0"/>
    </radialGradient>
    <filter id="glow" x="-30%" y="-30%" width="160%" height="160%"><feGaussianBlur stdDeviation="6"/></filter>
  </defs>
  <rect width="800" height="800" fill="url(#bg)"/>
  <rect width="800" height="800" fill="url(#halo)"/>
  <ellipse cx="400" cy="690" rx="230" ry="42" fill="#22d3ee" opacity="0.16"/>
  <g filter="url(#glow)" opacity="0.7"><circle cx="400" cy="386" r="48" fill="#22d3ee"/><rect x="352" y="350" width="96" height="72" fill="#04050a" opacity="0.5"/><line x1="280" y1="434" x2="520" y2="434" stroke="#3b82f6" stroke-opacity="0.6" stroke-width="2"/><line x1="280" y1="452" x2="520" y2="452" stroke="#3b82f6" stroke-opacity="0.6" stroke-width="2"/><line x1="280" y1="470" x2="520" y2="470" stroke="#3b82f6" stroke-opacity="0.6" stroke-width="2"/><line x1="280" y1="488" x2="520" y2="488" stroke="#3b82f6" stroke-opacity="0.6" stroke-width="2"/><line x1="280" y1="506" x2="520" y2="506" stroke="#3b82f6" stroke-opacity="0.6" stroke-width="2"/></g>
  <g><path d="M260 270 Q400 250 540 270 Q560 410 540 550 Q400 570 260 550 Q240 410 260 270 Z" fill="#16131f" stroke="#22d3ee" stroke-opacity="0.55" stroke-width="2"/></g>
  <g><circle cx="400" cy="386" r="48" fill="#22d3ee"/><rect x="352" y="350" width="96" height="72" fill="#04050a" opacity="0.5"/><line x1="280" y1="434" x2="520" y2="434" stroke="#3b82f6" stroke-opacity="0.6" stroke-width="2"/><line x1="280" y1="452" x2="520" y2="452" stroke="#3b82f6" stroke-opacity="0.6" stroke-width="2"/><line x1="280" y1="470" x2="520" y2="470" stroke="#3b82f6" stroke-opacity="0.6" stroke-width="2"/><line x1="280" y1="488" x2="520" y2="488" stroke="#3b82f6" stroke-opacity="0.6" stroke-width="2"/><line x1="280" y1="506" x2="520" y2="506" stroke="#3b82f6" stroke-opacity="0.6" stroke-width="2"/></g>
  <text x="40" y="60" font-family="Arial, sans-serif" font-weight="900" font-size="26" letter-spacing="3" fill="#e6e9f2">LEOPARD<tspan fill="#22d3ee">Ø</tspan></text>
  <text x="40" y="752" font-family="Arial, sans-serif" font-weight="800" font-size="22" fill="#cbd2e0">Synthwave Throw Pillow</text>
  <text x="760" y="752" text-anchor="end" font-family="monospace" font-size="14" letter-spacing="2" fill="#6b7280">THROW PILLOW</text>
</svg>