<svg xmlns="http://www.w3.org/2000/svg" viewBox="0 0 800 800" width="800" height="800">
  <defs>
    <radialGradient id="bg" cx="50%" cy="34%" r="75%">
      <stop offset="0%" stop-color="#141022"/><stop offset="55%" stop-color="#0a0812"/><stop offset="100%" stop-color="#04050a"/>
    </radialGradient>
    <radialGradient id="halo" cx="50%" cy="42%" r="52%">
      <stop offset="0%" stop-color="#a855f7" stop-opacity="0.26"/><stop offset="100%" stop-color="#a855f7" stop-opacity="0"/>
    </radialGradient>
    <linearGradient id="fab" x1="0" y1="0" x2="0" y2="1">
      <stop offset="0%" stop-color="#1d1830"/><stop offset="55%" stop-color="#140f1f"/><stop offset="100%" stop-color="#0a0712"/>
    </linearGradient>
    <filter id="glow" x="-40%" y="-40%" width="180%" height="180%"><feGaussianBlur stdDeviation="4"/></filter>
    <clipPath id="cp"><rect x="348" y="300" width="104" height="264" rx="10"/></clipPath>
  </defs>
  <rect width="800" height="800" fill="url(#bg)"/>
  <rect width="800" height="800" fill="url(#halo)"/>
  <ellipse cx="400" cy="690" rx="230" ry="42" fill="#a855f7" opacity="0.16"/>
  <g><path d="M330 280 L470 280 L450 600 L350 600 Z" fill="url(#fab)" fill-opacity="0.55" stroke="#a855f7" stroke-opacity="0.55" stroke-width="2"/></g>
  <g clip-path="url(#cp)">
    <g filter="url(#glow)" opacity="0.9"><ellipse cx="400" cy="432" rx="43.056000000000004" ry="16.265600000000003" transform="rotate(18 400 432)" fill="none" stroke="#a855f7" stroke-width="2" stroke-linecap="round" stroke-linejoin="round"/><ellipse cx="400" cy="432" rx="38.272000000000006" ry="14.352" transform="rotate(-34 400 432)" stroke="#7c5cff" fill="none" stroke-width="1.4352"/><circle cx="400" cy="432" r="5.7408" fill="#a855f7"/></g>
    <g><ellipse cx="400" cy="432" rx="43.056000000000004" ry="16.265600000000003" transform="rotate(18 400 432)" fill="none" stroke="#a855f7" stroke-width="2" stroke-linecap="round" stroke-linejoin="round"/><ellipse cx="400" cy="432" rx="38.272000000000006" ry="14.352" transform="rotate(-34 400 432)" stroke="#7c5cff" fill="none" stroke-width="1.4352"/><circle cx="400" cy="432" r="5.7408" fill="#a855f7"/></g>
  </g>
  <text x="40" y="60" font-family="Arial, sans-serif" font-weight="900" font-size="26" letter-spacing="3" fill="#e6e9f2">LEOPARD<tspan fill="#a855f7">Ø</tspan></text>
  <text x="40" y="752" font-family="Arial, sans-serif" font-weight="800" font-size="22" fill="#cbd2e0">Orbit Pint Glass</text>
  <text x="760" y="752" text-anchor="end" font-family="monospace" font-size="14" letter-spacing="2" fill="#6b7280">PINT GLASS</text>
</svg>