<svg xmlns="http://www.w3.org/2000/svg" viewBox="0 0 800 800" width="800" height="800">
  <defs>
    <radialGradient id="bg" cx="50%" cy="34%" r="75%">
      <stop offset="0%" stop-color="#141022"/><stop offset="55%" stop-color="#0a0812"/><stop offset="100%" stop-color="#04050a"/>
    </radialGradient>
    <radialGradient id="halo" cx="50%" cy="42%" r="50%">
      <stop offset="0%" stop-color="#a855f7" stop-opacity="0.28"/><stop offset="100%" stop-color="#a855f7" stop-opacity="0"/>
    </radialGradient>
    <filter id="glow" x="-30%" y="-30%" width="160%" height="160%"><feGaussianBlur stdDeviation="6"/></filter>
  </defs>
  <rect width="800" height="800" fill="url(#bg)"/>
  <rect width="800" height="800" fill="url(#halo)"/>
  <ellipse cx="400" cy="690" rx="230" ry="42" fill="#a855f7" opacity="0.16"/>
  <g filter="url(#glow)" opacity="0.7"><ellipse cx="400" cy="430" rx="68.4" ry="25.840000000000003" transform="rotate(18 400 430)" fill="none" stroke="#a855f7" stroke-width="2.28" stroke-linecap="round" stroke-linejoin="round"/><ellipse cx="400" cy="430" rx="60.800000000000004" ry="22.8" transform="rotate(-34 400 430)" stroke="#7c5cff" fill="none" stroke-width="2.28"/><circle cx="400" cy="430" r="9.12" fill="#a855f7"/></g>
  <g><path d="M330 280 L470 280 L450 600 L350 600 Z" fill="#16131f" fill-opacity="0.55" stroke="#a855f7" stroke-opacity="0.55" stroke-width="2"/></g>
  <g><ellipse cx="400" cy="430" rx="68.4" ry="25.840000000000003" transform="rotate(18 400 430)" fill="none" stroke="#a855f7" stroke-width="2.28" stroke-linecap="round" stroke-linejoin="round"/><ellipse cx="400" cy="430" rx="60.800000000000004" ry="22.8" transform="rotate(-34 400 430)" stroke="#7c5cff" fill="none" stroke-width="2.28"/><circle cx="400" cy="430" r="9.12" fill="#a855f7"/></g>
  <text x="40" y="60" font-family="Arial, sans-serif" font-weight="900" font-size="26" letter-spacing="3" fill="#e6e9f2">LEOPARD<tspan fill="#a855f7">Ø</tspan></text>
  <text x="40" y="752" font-family="Arial, sans-serif" font-weight="800" font-size="22" fill="#cbd2e0">Orbit Pint Glass</text>
  <text x="760" y="752" text-anchor="end" font-family="monospace" font-size="14" letter-spacing="2" fill="#6b7280">PINT GLASS</text>
</svg>