<svg xmlns="http://www.w3.org/2000/svg" viewBox="0 0 800 800" width="800" height="800">
  <defs>
    <radialGradient id="bg" cx="50%" cy="34%" r="75%">
      <stop offset="0%" stop-color="#141022"/><stop offset="55%" stop-color="#0a0812"/><stop offset="100%" stop-color="#04050a"/>
    </radialGradient>
    <radialGradient id="halo" cx="50%" cy="42%" r="50%">
      <stop offset="0%" stop-color="#22d3ee" stop-opacity="0.28"/><stop offset="100%" stop-color="#22d3ee" stop-opacity="0"/>
    </radialGradient>
    <filter id="glow" x="-30%" y="-30%" width="160%" height="160%"><feGaussianBlur stdDeviation="6"/></filter>
  </defs>
  <rect width="800" height="800" fill="url(#bg)"/>
  <rect width="800" height="800" fill="url(#halo)"/>
  <ellipse cx="400" cy="690" rx="230" ry="42" fill="#22d3ee" opacity="0.16"/>
  <g filter="url(#glow)" opacity="0.7"><line x1="295" y1="310" x2="505" y2="310" stroke="#22d3ee" stroke-width="4.5" stroke-opacity="0.8"/><line x1="295" y1="335.5" x2="505" y2="335.5" stroke="#a855f7" stroke-width="4.5" stroke-opacity="0.8"/><line x1="295" y1="361" x2="505" y2="361" stroke="#22d3ee" stroke-width="4.5" stroke-opacity="0.8"/><line x1="295" y1="386.5" x2="505" y2="386.5" stroke="#a855f7" stroke-width="4.5" stroke-opacity="0.8"/><line x1="295" y1="412" x2="505" y2="412" stroke="#22d3ee" stroke-width="4.5" stroke-opacity="0.8"/><line x1="295" y1="437.5" x2="505" y2="437.5" stroke="#a855f7" stroke-width="4.5" stroke-opacity="0.8"/><line x1="295" y1="463" x2="505" y2="463" stroke="#22d3ee" stroke-width="4.5" stroke-opacity="0.8"/><line x1="295" y1="488.5" x2="505" y2="488.5" stroke="#a855f7" stroke-width="4.5" stroke-opacity="0.8"/><text x="400" y="520" text-anchor="middle" dominant-baseline="middle" font-family="Arial Black, Arial, sans-serif" font-weight="900" font-size="24" fill="#fff" letter-spacing="1">DYSTØPIA</text></g>
  <g>
        <rect x="232" y="180" width="336" height="440" rx="6" fill="#0e0b16" stroke="#22d3ee" stroke-opacity="0.55" stroke-width="2"/>
        <rect x="252" y="200" width="296" height="400" rx="4" fill="#16131f" stroke="#22d3ee" stroke-opacity="0.3"/></g>
  <g><line x1="295" y1="310" x2="505" y2="310" stroke="#22d3ee" stroke-width="4.5" stroke-opacity="0.8"/><line x1="295" y1="335.5" x2="505" y2="335.5" stroke="#a855f7" stroke-width="4.5" stroke-opacity="0.8"/><line x1="295" y1="361" x2="505" y2="361" stroke="#22d3ee" stroke-width="4.5" stroke-opacity="0.8"/><line x1="295" y1="386.5" x2="505" y2="386.5" stroke="#a855f7" stroke-width="4.5" stroke-opacity="0.8"/><line x1="295" y1="412" x2="505" y2="412" stroke="#22d3ee" stroke-width="4.5" stroke-opacity="0.8"/><line x1="295" y1="437.5" x2="505" y2="437.5" stroke="#a855f7" stroke-width="4.5" stroke-opacity="0.8"/><line x1="295" y1="463" x2="505" y2="463" stroke="#22d3ee" stroke-width="4.5" stroke-opacity="0.8"/><line x1="295" y1="488.5" x2="505" y2="488.5" stroke="#a855f7" stroke-width="4.5" stroke-opacity="0.8"/><text x="400" y="520" text-anchor="middle" dominant-baseline="middle" font-family="Arial Black, Arial, sans-serif" font-weight="900" font-size="24" fill="#fff" letter-spacing="1">DYSTØPIA</text></g>
  <text x="40" y="60" font-family="Arial, sans-serif" font-weight="900" font-size="26" letter-spacing="3" fill="#e6e9f2">LEOPARD<tspan fill="#22d3ee">Ø</tspan></text>
  <text x="40" y="752" font-family="Arial, sans-serif" font-weight="800" font-size="22" fill="#cbd2e0">DYSTØPIA Tracklist Poster</text>
  <text x="760" y="752" text-anchor="end" font-family="monospace" font-size="14" letter-spacing="2" fill="#6b7280">18×24 PRINT</text>
</svg>