<svg xmlns="http://www.w3.org/2000/svg" viewBox="0 0 800 800" width="800" height="800">
  <defs>
    <radialGradient id="bg" cx="50%" cy="34%" r="75%">
      <stop offset="0%" stop-color="#141022"/><stop offset="55%" stop-color="#0a0812"/><stop offset="100%" stop-color="#04050a"/>
    </radialGradient>
    <radialGradient id="halo" cx="50%" cy="42%" r="50%">
      <stop offset="0%" stop-color="#ff6a00" stop-opacity="0.28"/><stop offset="100%" stop-color="#ff6a00" stop-opacity="0"/>
    </radialGradient>
    <filter id="glow" x="-30%" y="-30%" width="160%" height="160%"><feGaussianBlur stdDeviation="6"/></filter>
  </defs>
  <rect width="800" height="800" fill="url(#bg)"/>
  <rect width="800" height="800" fill="url(#halo)"/>
  <ellipse cx="400" cy="690" rx="230" ry="42" fill="#ff6a00" opacity="0.16"/>
  <g filter="url(#glow)" opacity="0.7"><circle cx="400" cy="370" r="42.00000000000001" fill="#ff6a00"/><rect x="272.5" y="430" width="18" height="60" fill="#0c0a14" stroke="#ff2d00" stroke-opacity="0.6"/><rect x="295.6818181818182" y="340.5153745387936" width="18" height="149.48462546120643" fill="#0c0a14" stroke="#ff2d00" stroke-opacity="0.6"/><rect x="318.8636363636364" y="310.75707956398423" width="18" height="179.24292043601574" fill="#0c0a14" stroke="#ff2d00" stroke-opacity="0.6"/><rect x="342.04545454545456" y="360.58722827341603" width="18" height="129.41277172658394" fill="#0c0a14" stroke="#ff2d00" stroke-opacity="0.6"/><rect x="365.22727272727275" y="403.2532103079703" width="18" height="86.74678969202971" fill="#0c0a14" stroke="#ff2d00" stroke-opacity="0.6"/><rect x="388.40909090909093" y="324.9457390373886" width="18" height="165.0542609626114" fill="#0c0a14" stroke="#ff2d00" stroke-opacity="0.6"/><rect x="411.5909090909091" y="316.7565196667075" width="18" height="173.24348033329252" fill="#0c0a14" stroke="#ff2d00" stroke-opacity="0.6"/><rect x="434.77272727272725" y="384.15142993791926" width="18" height="105.84857006208071" fill="#0c0a14" stroke="#ff2d00" stroke-opacity="0.6"/><rect x="457.9545454545455" y="377.85212535137237" width="18" height="112.1478746486276" fill="#0c0a14" stroke="#ff2d00" stroke-opacity="0.6"/><rect x="481.1363636363636" y="314.661673059746" width="18" height="175.338326940254" fill="#0c0a14" stroke="#ff2d00" stroke-opacity="0.6"/><rect x="504.31818181818187" y="328.45355149897955" width="18" height="161.54644850102048" fill="#0c0a14" stroke="#ff2d00" stroke-opacity="0.6"/></g>
  <g>
        <rect x="232" y="180" width="336" height="440" rx="6" fill="#0e0b16" stroke="#ff6a00" stroke-opacity="0.55" stroke-width="2"/>
        <rect x="252" y="200" width="296" height="400" rx="4" fill="#16131f" stroke="#ff6a00" stroke-opacity="0.3"/></g>
  <g><circle cx="400" cy="370" r="42.00000000000001" fill="#ff6a00"/><rect x="272.5" y="430" width="18" height="60" fill="#0c0a14" stroke="#ff2d00" stroke-opacity="0.6"/><rect x="295.6818181818182" y="340.5153745387936" width="18" height="149.48462546120643" fill="#0c0a14" stroke="#ff2d00" stroke-opacity="0.6"/><rect x="318.8636363636364" y="310.75707956398423" width="18" height="179.24292043601574" fill="#0c0a14" stroke="#ff2d00" stroke-opacity="0.6"/><rect x="342.04545454545456" y="360.58722827341603" width="18" height="129.41277172658394" fill="#0c0a14" stroke="#ff2d00" stroke-opacity="0.6"/><rect x="365.22727272727275" y="403.2532103079703" width="18" height="86.74678969202971" fill="#0c0a14" stroke="#ff2d00" stroke-opacity="0.6"/><rect x="388.40909090909093" y="324.9457390373886" width="18" height="165.0542609626114" fill="#0c0a14" stroke="#ff2d00" stroke-opacity="0.6"/><rect x="411.5909090909091" y="316.7565196667075" width="18" height="173.24348033329252" fill="#0c0a14" stroke="#ff2d00" stroke-opacity="0.6"/><rect x="434.77272727272725" y="384.15142993791926" width="18" height="105.84857006208071" fill="#0c0a14" stroke="#ff2d00" stroke-opacity="0.6"/><rect x="457.9545454545455" y="377.85212535137237" width="18" height="112.1478746486276" fill="#0c0a14" stroke="#ff2d00" stroke-opacity="0.6"/><rect x="481.1363636363636" y="314.661673059746" width="18" height="175.338326940254" fill="#0c0a14" stroke="#ff2d00" stroke-opacity="0.6"/><rect x="504.31818181818187" y="328.45355149897955" width="18" height="161.54644850102048" fill="#0c0a14" stroke="#ff2d00" stroke-opacity="0.6"/></g>
  <text x="40" y="60" font-family="Arial, sans-serif" font-weight="900" font-size="26" letter-spacing="3" fill="#e6e9f2">LEOPARD<tspan fill="#ff6a00">Ø</tspan></text>
  <text x="40" y="752" font-family="Arial, sans-serif" font-weight="800" font-size="22" fill="#cbd2e0">Burning Skyline Print</text>
  <text x="760" y="752" text-anchor="end" font-family="monospace" font-size="14" letter-spacing="2" fill="#6b7280">18×24 PRINT</text>
</svg>