<svg xmlns="http://www.w3.org/2000/svg" viewBox="0 0 800 800" width="800" height="800">
  <defs>
    <radialGradient id="bg" cx="50%" cy="34%" r="75%">
      <stop offset="0%" stop-color="#141022"/><stop offset="55%" stop-color="#0a0812"/><stop offset="100%" stop-color="#04050a"/>
    </radialGradient>
    <radialGradient id="halo" cx="50%" cy="42%" r="52%">
      <stop offset="0%" stop-color="#22d3ee" stop-opacity="0.26"/><stop offset="100%" stop-color="#22d3ee" stop-opacity="0"/>
    </radialGradient>
    <linearGradient id="fab" x1="0" y1="0" x2="0" y2="1">
      <stop offset="0%" stop-color="#272036"/><stop offset="52%" stop-color="#171122"/><stop offset="100%" stop-color="#090610"/>
    </linearGradient>
    <linearGradient id="toplight" x1="0" y1="0" x2="0" y2="1">
      <stop offset="0%" stop-color="#ffffff" stop-opacity="0.11"/><stop offset="44%" stop-color="#ffffff" stop-opacity="0"/>
    </linearGradient>
    <radialGradient id="vig" cx="50%" cy="44%" r="62%">
      <stop offset="0%" stop-color="#04050a" stop-opacity="0"/><stop offset="76%" stop-color="#04050a" stop-opacity="0"/><stop offset="100%" stop-color="#04050a" stop-opacity="0.55"/>
    </radialGradient>
    <filter id="glow" x="-40%" y="-40%" width="180%" height="180%"><feGaussianBlur stdDeviation="4"/></filter>
    <filter id="soft" x="-60%" y="-60%" width="220%" height="220%"><feGaussianBlur stdDeviation="14"/></filter>
    <clipPath id="cp"><rect x="260" y="210" width="280" height="380" rx="10"/></clipPath>
  </defs>
  <rect width="800" height="800" fill="url(#bg)"/>
  <rect width="800" height="800" fill="url(#halo)"/>
  <ellipse cx="400" cy="696" rx="226" ry="40" fill="#22d3ee" opacity="0.14"/>
  <ellipse cx="400" cy="676" rx="166" ry="24" fill="#020308" opacity="0.7" filter="url(#soft)"/>
  <g>
        <rect x="232" y="180" width="336" height="440" rx="6" fill="#0c0a14" stroke="#22d3ee" stroke-opacity="0.55" stroke-width="2"/>
        <rect x="252" y="200" width="296" height="400" rx="4" fill="url(#fab)" stroke="#22d3ee" stroke-opacity="0.3"/></g>
  <g clip-path="url(#cp)">
    
    <g filter="url(#glow)" opacity="0.9"><path d="M296.96 348.48 H387.12 V451.52 H490.15999999999997" fill="none" stroke="#22d3ee" stroke-width="3.8640000000000003" stroke-linecap="round" stroke-linejoin="round"/><path d="M503.04 374.24 H425.76 V322.72" fill="none" stroke="#22d3ee" stroke-width="3.8640000000000003" stroke-linecap="round" stroke-linejoin="round"/><circle cx="387.12" cy="348.48" r="7.728000000000001" fill="#3b82f6"/><circle cx="425.76" cy="322.72" r="7.728000000000001" fill="#3b82f6"/><rect x="376.816" y="428.336" width="46.368" height="46.368" rx="4" fill="none" stroke="#22d3ee" stroke-width="3.8640000000000003" stroke-linecap="round" stroke-linejoin="round"/></g>
    <g><path d="M296.96 348.48 H387.12 V451.52 H490.15999999999997" fill="none" stroke="#22d3ee" stroke-width="3.8640000000000003" stroke-linecap="round" stroke-linejoin="round"/><path d="M503.04 374.24 H425.76 V322.72" fill="none" stroke="#22d3ee" stroke-width="3.8640000000000003" stroke-linecap="round" stroke-linejoin="round"/><circle cx="387.12" cy="348.48" r="7.728000000000001" fill="#3b82f6"/><circle cx="425.76" cy="322.72" r="7.728000000000001" fill="#3b82f6"/><rect x="376.816" y="428.336" width="46.368" height="46.368" rx="4" fill="none" stroke="#22d3ee" stroke-width="3.8640000000000003" stroke-linecap="round" stroke-linejoin="round"/></g>
  </g>
  <rect width="800" height="800" fill="url(#toplight)"/>
  <rect width="800" height="800" fill="url(#vig)"/>
  <text x="40" y="60" font-family="Arial, sans-serif" font-weight="900" font-size="26" letter-spacing="3" fill="#e6e9f2">LEOPARD<tspan fill="#22d3ee">Ø</tspan></text>
  <text x="40" y="752" font-family="Arial, sans-serif" font-weight="800" font-size="22" fill="#cbd2e0">Circuit Blueprint Print</text>
  <text x="760" y="752" text-anchor="end" font-family="monospace" font-size="14" letter-spacing="2" fill="#6b7280">12×16 PRINT</text>
</svg>