<svg xmlns="http://www.w3.org/2000/svg" viewBox="0 0 800 800" width="800" height="800">
  <defs>
    <radialGradient id="bg" cx="50%" cy="34%" r="75%">
      <stop offset="0%" stop-color="#141022"/><stop offset="55%" stop-color="#0a0812"/><stop offset="100%" stop-color="#04050a"/>
    </radialGradient>
    <radialGradient id="halo" cx="50%" cy="42%" r="52%">
      <stop offset="0%" stop-color="#22d3ee" stop-opacity="0.26"/><stop offset="100%" stop-color="#22d3ee" stop-opacity="0"/>
    </radialGradient>
    <linearGradient id="fab" x1="0" y1="0" x2="0" y2="1">
      <stop offset="0%" stop-color="#1d1830"/><stop offset="55%" stop-color="#140f1f"/><stop offset="100%" stop-color="#0a0712"/>
    </linearGradient>
    <filter id="glow" x="-40%" y="-40%" width="180%" height="180%"><feGaussianBlur stdDeviation="4"/></filter>
    <clipPath id="cp"><rect x="260" y="210" width="280" height="380" rx="10"/></clipPath>
  </defs>
  <rect width="800" height="800" fill="url(#bg)"/>
  <rect width="800" height="800" fill="url(#halo)"/>
  <ellipse cx="400" cy="690" rx="230" ry="42" fill="#22d3ee" opacity="0.16"/>
  <g>
        <rect x="232" y="180" width="336" height="440" rx="6" fill="#0c0a14" stroke="#22d3ee" stroke-opacity="0.55" stroke-width="2"/>
        <rect x="252" y="200" width="296" height="400" rx="4" fill="url(#fab)" stroke="#22d3ee" stroke-opacity="0.3"/></g>
  <g clip-path="url(#cp)">
    <g filter="url(#glow)" opacity="0.9"><circle cx="400" cy="374.24" r="51.52000000000001" fill="#22d3ee"/><rect x="348.48" y="335.6" width="103.04000000000002" height="77.28" fill="#04050a" opacity="0.5"/><line x1="271.2" y1="425.76" x2="528.8" y2="425.76" stroke="#3b82f6" stroke-opacity="0.6" stroke-width="2"/><line x1="271.2" y1="445.08" x2="528.8" y2="445.08" stroke="#3b82f6" stroke-opacity="0.6" stroke-width="2"/><line x1="271.2" y1="464.4" x2="528.8" y2="464.4" stroke="#3b82f6" stroke-opacity="0.6" stroke-width="2"/><line x1="271.2" y1="483.71999999999997" x2="528.8" y2="483.71999999999997" stroke="#3b82f6" stroke-opacity="0.6" stroke-width="2"/><line x1="271.2" y1="503.03999999999996" x2="528.8" y2="503.03999999999996" stroke="#3b82f6" stroke-opacity="0.6" stroke-width="2"/></g>
    <g><circle cx="400" cy="374.24" r="51.52000000000001" fill="#22d3ee"/><rect x="348.48" y="335.6" width="103.04000000000002" height="77.28" fill="#04050a" opacity="0.5"/><line x1="271.2" y1="425.76" x2="528.8" y2="425.76" stroke="#3b82f6" stroke-opacity="0.6" stroke-width="2"/><line x1="271.2" y1="445.08" x2="528.8" y2="445.08" stroke="#3b82f6" stroke-opacity="0.6" stroke-width="2"/><line x1="271.2" y1="464.4" x2="528.8" y2="464.4" stroke="#3b82f6" stroke-opacity="0.6" stroke-width="2"/><line x1="271.2" y1="483.71999999999997" x2="528.8" y2="483.71999999999997" stroke="#3b82f6" stroke-opacity="0.6" stroke-width="2"/><line x1="271.2" y1="503.03999999999996" x2="528.8" y2="503.03999999999996" stroke="#3b82f6" stroke-opacity="0.6" stroke-width="2"/></g>
  </g>
  <text x="40" y="60" font-family="Arial, sans-serif" font-weight="900" font-size="26" letter-spacing="3" fill="#e6e9f2">LEOPARD<tspan fill="#22d3ee">Ø</tspan></text>
  <text x="40" y="752" font-family="Arial, sans-serif" font-weight="800" font-size="22" fill="#cbd2e0">Synthwave Horizon Print</text>
  <text x="760" y="752" text-anchor="end" font-family="monospace" font-size="14" letter-spacing="2" fill="#6b7280">18×24 PRINT</text>
</svg>