<svg xmlns="http://www.w3.org/2000/svg" viewBox="0 0 800 800" width="800" height="800">
  <defs>
    <radialGradient id="bg" cx="50%" cy="34%" r="75%">
      <stop offset="0%" stop-color="#141022"/><stop offset="55%" stop-color="#0a0812"/><stop offset="100%" stop-color="#04050a"/>
    </radialGradient>
    <radialGradient id="halo" cx="50%" cy="42%" r="50%">
      <stop offset="0%" stop-color="#a855f7" stop-opacity="0.28"/><stop offset="100%" stop-color="#a855f7" stop-opacity="0"/>
    </radialGradient>
    <filter id="glow" x="-30%" y="-30%" width="160%" height="160%"><feGaussianBlur stdDeviation="6"/></filter>
  </defs>
  <rect width="800" height="800" fill="url(#bg)"/>
  <rect width="800" height="800" fill="url(#halo)"/>
  <ellipse cx="400" cy="690" rx="230" ry="42" fill="#a855f7" opacity="0.16"/>
  <g filter="url(#glow)" opacity="0.7"><ellipse cx="400" cy="400" rx="126" ry="47.6" transform="rotate(18 400 400)" fill="none" stroke="#a855f7" stroke-width="4.2" stroke-linecap="round" stroke-linejoin="round"/><ellipse cx="400" cy="400" rx="112" ry="42" transform="rotate(-34 400 400)" stroke="#7c5cff" fill="none" stroke-width="4.2"/><circle cx="400" cy="400" r="16.8" fill="#a855f7"/></g>
  <g><rect x="240" y="240" width="320" height="320" rx="16" fill="#16131f" stroke="#a855f7" stroke-opacity="0.55" stroke-width="2"/></g>
  <g><ellipse cx="400" cy="400" rx="126" ry="47.6" transform="rotate(18 400 400)" fill="none" stroke="#a855f7" stroke-width="4.2" stroke-linecap="round" stroke-linejoin="round"/><ellipse cx="400" cy="400" rx="112" ry="42" transform="rotate(-34 400 400)" stroke="#7c5cff" fill="none" stroke-width="4.2"/><circle cx="400" cy="400" r="16.8" fill="#a855f7"/></g>
  <text x="40" y="60" font-family="Arial, sans-serif" font-weight="900" font-size="26" letter-spacing="3" fill="#e6e9f2">LEOPARD<tspan fill="#a855f7">Ø</tspan></text>
  <text x="40" y="752" font-family="Arial, sans-serif" font-weight="800" font-size="22" fill="#cbd2e0">Orbit Area Rug</text>
  <text x="760" y="752" text-anchor="end" font-family="monospace" font-size="14" letter-spacing="2" fill="#6b7280">AREA RUG</text>
</svg>