<svg xmlns="http://www.w3.org/2000/svg" viewBox="0 0 800 800" width="800" height="800">
  <defs>
    <radialGradient id="bg" cx="50%" cy="34%" r="75%">
      <stop offset="0%" stop-color="#141022"/><stop offset="55%" stop-color="#0a0812"/><stop offset="100%" stop-color="#04050a"/>
    </radialGradient>
    <radialGradient id="halo" cx="50%" cy="42%" r="52%">
      <stop offset="0%" stop-color="#22d3ee" stop-opacity="0.26"/><stop offset="100%" stop-color="#22d3ee" stop-opacity="0"/>
    </radialGradient>
    <linearGradient id="fab" x1="0" y1="0" x2="0" y2="1">
      <stop offset="0%" stop-color="#272036"/><stop offset="52%" stop-color="#171122"/><stop offset="100%" stop-color="#090610"/>
    </linearGradient>
    <linearGradient id="toplight" x1="0" y1="0" x2="0" y2="1">
      <stop offset="0%" stop-color="#ffffff" stop-opacity="0.11"/><stop offset="44%" stop-color="#ffffff" stop-opacity="0"/>
    </linearGradient>
    <radialGradient id="vig" cx="50%" cy="44%" r="62%">
      <stop offset="0%" stop-color="#04050a" stop-opacity="0"/><stop offset="76%" stop-color="#04050a" stop-opacity="0"/><stop offset="100%" stop-color="#04050a" stop-opacity="0.55"/>
    </radialGradient>
    <filter id="glow" x="-40%" y="-40%" width="180%" height="180%"><feGaussianBlur stdDeviation="4"/></filter>
    <filter id="soft" x="-60%" y="-60%" width="220%" height="220%"><feGaussianBlur stdDeviation="14"/></filter>
    <clipPath id="cp"><rect x="322" y="252" width="156" height="170" rx="10"/></clipPath>
  </defs>
  <rect width="800" height="800" fill="url(#bg)"/>
  <rect width="800" height="800" fill="url(#halo)"/>
  <ellipse cx="400" cy="696" rx="226" ry="40" fill="#22d3ee" opacity="0.14"/>
  <ellipse cx="400" cy="676" rx="166" ry="24" fill="#020308" opacity="0.7" filter="url(#soft)"/>
  <g>
        <path d="M300 220 L500 220 L520 600 L430 600 L400 360 L370 600 L280 600 Z" fill="url(#fab)" stroke="#22d3ee" stroke-opacity="0.55" stroke-width="2"/>
        <rect x="300" y="220" width="200" height="36" fill="#0c0a14" stroke="#22d3ee" stroke-opacity="0.55" stroke-width="2"/></g>
  <g clip-path="url(#cp)">
    
    <g filter="url(#glow)" opacity="0.9"><circle cx="400" cy="322.648" r="28.704000000000004" fill="#22d3ee"/><rect x="371.296" y="301.12" width="57.40800000000001" height="43.056000000000004" fill="#04050a" opacity="0.5"/><line x1="328.24" y1="351.352" x2="471.76" y2="351.352" stroke="#3b82f6" stroke-opacity="0.6" stroke-width="2"/><line x1="328.24" y1="362.116" x2="471.76" y2="362.116" stroke="#3b82f6" stroke-opacity="0.6" stroke-width="2"/><line x1="328.24" y1="372.88" x2="471.76" y2="372.88" stroke="#3b82f6" stroke-opacity="0.6" stroke-width="2"/><line x1="328.24" y1="383.644" x2="471.76" y2="383.644" stroke="#3b82f6" stroke-opacity="0.6" stroke-width="2"/><line x1="328.24" y1="394.40799999999996" x2="471.76" y2="394.40799999999996" stroke="#3b82f6" stroke-opacity="0.6" stroke-width="2"/></g>
    <g><circle cx="400" cy="322.648" r="28.704000000000004" fill="#22d3ee"/><rect x="371.296" y="301.12" width="57.40800000000001" height="43.056000000000004" fill="#04050a" opacity="0.5"/><line x1="328.24" y1="351.352" x2="471.76" y2="351.352" stroke="#3b82f6" stroke-opacity="0.6" stroke-width="2"/><line x1="328.24" y1="362.116" x2="471.76" y2="362.116" stroke="#3b82f6" stroke-opacity="0.6" stroke-width="2"/><line x1="328.24" y1="372.88" x2="471.76" y2="372.88" stroke="#3b82f6" stroke-opacity="0.6" stroke-width="2"/><line x1="328.24" y1="383.644" x2="471.76" y2="383.644" stroke="#3b82f6" stroke-opacity="0.6" stroke-width="2"/><line x1="328.24" y1="394.40799999999996" x2="471.76" y2="394.40799999999996" stroke="#3b82f6" stroke-opacity="0.6" stroke-width="2"/></g>
  </g>
  <rect width="800" height="800" fill="url(#toplight)"/>
  <rect width="800" height="800" fill="url(#vig)"/>
  <text x="40" y="60" font-family="Arial, sans-serif" font-weight="900" font-size="26" letter-spacing="3" fill="#e6e9f2">LEOPARD<tspan fill="#22d3ee">Ø</tspan></text>
  <text x="40" y="752" font-family="Arial, sans-serif" font-weight="800" font-size="22" fill="#cbd2e0">Synthwave Mesh Shorts</text>
  <text x="760" y="752" text-anchor="end" font-family="monospace" font-size="14" letter-spacing="2" fill="#6b7280">SHORTS</text>
</svg>