<svg xmlns="http://www.w3.org/2000/svg" viewBox="0 0 800 800" width="800" height="800">
  <defs>
    <radialGradient id="bg" cx="50%" cy="34%" r="75%">
      <stop offset="0%" stop-color="#141022"/><stop offset="55%" stop-color="#0a0812"/><stop offset="100%" stop-color="#04050a"/>
    </radialGradient>
    <radialGradient id="halo" cx="50%" cy="42%" r="52%">
      <stop offset="0%" stop-color="#3b82f6" stop-opacity="0.26"/><stop offset="100%" stop-color="#3b82f6" stop-opacity="0"/>
    </radialGradient>
    <linearGradient id="fab" x1="0" y1="0" x2="0" y2="1">
      <stop offset="0%" stop-color="#272036"/><stop offset="52%" stop-color="#171122"/><stop offset="100%" stop-color="#090610"/>
    </linearGradient>
    <linearGradient id="toplight" x1="0" y1="0" x2="0" y2="1">
      <stop offset="0%" stop-color="#ffffff" stop-opacity="0.11"/><stop offset="44%" stop-color="#ffffff" stop-opacity="0"/>
    </linearGradient>
    <radialGradient id="vig" cx="50%" cy="44%" r="62%">
      <stop offset="0%" stop-color="#04050a" stop-opacity="0"/><stop offset="76%" stop-color="#04050a" stop-opacity="0"/><stop offset="100%" stop-color="#04050a" stop-opacity="0.55"/>
    </radialGradient>
    <filter id="glow" x="-40%" y="-40%" width="180%" height="180%"><feGaussianBlur stdDeviation="4"/></filter>
    <filter id="soft" x="-60%" y="-60%" width="220%" height="220%"><feGaussianBlur stdDeviation="14"/></filter>
    <clipPath id="cp"><rect x="262" y="250" width="276" height="196" rx="10"/></clipPath>
  </defs>
  <rect width="800" height="800" fill="url(#bg)"/>
  <rect width="800" height="800" fill="url(#halo)"/>
  <ellipse cx="400" cy="696" rx="226" ry="40" fill="#3b82f6" opacity="0.14"/>
  <ellipse cx="400" cy="676" rx="166" ry="24" fill="#020308" opacity="0.7" filter="url(#soft)"/>
  <g><rect x="250" y="240" width="300" height="220" rx="12" fill="url(#fab)" stroke="#3b82f6" stroke-opacity="0.55" stroke-width="2"/><path d="M210 480 L590 480 L610 520 L190 520 Z" fill="#0c0a14" stroke="#3b82f6" stroke-opacity="0.55" stroke-width="2"/></g>
  <g clip-path="url(#cp)">
    
    <g filter="url(#glow)" opacity="0.9"><rect x="327.87199999999996" y="379.55600000000004" width="6.311200000000001" height="18.032000000000004" rx="2" fill="#3b82f6"/><rect x="337.854" y="299.0883506206449" width="6.311200000000001" height="98.49964937935512" rx="2" fill="#6366f1"/><rect x="347.83599999999996" y="358.82037281713485" width="6.311200000000001" height="38.7676271828652" rx="2" fill="#3b82f6"/><rect x="357.818" y="304.4316934171985" width="6.311200000000001" height="93.15630658280153" rx="2" fill="#6366f1"/><rect x="367.79999999999995" y="339.4616662352088" width="6.311200000000001" height="58.126333764791234" rx="2" fill="#3b82f6"/><rect x="377.782" y="314.7635617332795" width="6.311200000000001" height="82.8244382667205" rx="2" fill="#6366f1"/><rect x="387.76399999999995" y="322.76536834990964" width="6.311200000000001" height="74.82263165009041" rx="2" fill="#3b82f6"/><rect x="397.746" y="329.3978821646382" width="6.311200000000001" height="68.19011783536183" rx="2" fill="#6366f1"/><rect x="407.72799999999995" y="309.84017369528453" width="6.311200000000001" height="87.7478263047155" rx="2" fill="#3b82f6"/><rect x="417.71" y="347.3628829338895" width="6.311200000000001" height="50.22511706611052" rx="2" fill="#6366f1"/><rect x="427.69199999999995" y="301.54436191892523" width="6.311200000000001" height="96.04363808107477" rx="2" fill="#3b82f6"/><rect x="437.674" y="367.4656230493327" width="6.311200000000001" height="30.12237695066735" rx="2" fill="#6366f1"/><rect x="447.65599999999995" y="298.42880491082326" width="6.311200000000001" height="99.15919508917678" rx="2" fill="#3b82f6"/><rect x="457.638" y="370.7407921009088" width="6.311200000000001" height="26.84720789909125" rx="2" fill="#6366f1"/></g>
    <g><rect x="327.87199999999996" y="379.55600000000004" width="6.311200000000001" height="18.032000000000004" rx="2" fill="#3b82f6"/><rect x="337.854" y="299.0883506206449" width="6.311200000000001" height="98.49964937935512" rx="2" fill="#6366f1"/><rect x="347.83599999999996" y="358.82037281713485" width="6.311200000000001" height="38.7676271828652" rx="2" fill="#3b82f6"/><rect x="357.818" y="304.4316934171985" width="6.311200000000001" height="93.15630658280153" rx="2" fill="#6366f1"/><rect x="367.79999999999995" y="339.4616662352088" width="6.311200000000001" height="58.126333764791234" rx="2" fill="#3b82f6"/><rect x="377.782" y="314.7635617332795" width="6.311200000000001" height="82.8244382667205" rx="2" fill="#6366f1"/><rect x="387.76399999999995" y="322.76536834990964" width="6.311200000000001" height="74.82263165009041" rx="2" fill="#3b82f6"/><rect x="397.746" y="329.3978821646382" width="6.311200000000001" height="68.19011783536183" rx="2" fill="#6366f1"/><rect x="407.72799999999995" y="309.84017369528453" width="6.311200000000001" height="87.7478263047155" rx="2" fill="#3b82f6"/><rect x="417.71" y="347.3628829338895" width="6.311200000000001" height="50.22511706611052" rx="2" fill="#6366f1"/><rect x="427.69199999999995" y="301.54436191892523" width="6.311200000000001" height="96.04363808107477" rx="2" fill="#3b82f6"/><rect x="437.674" y="367.4656230493327" width="6.311200000000001" height="30.12237695066735" rx="2" fill="#6366f1"/><rect x="447.65599999999995" y="298.42880491082326" width="6.311200000000001" height="99.15919508917678" rx="2" fill="#3b82f6"/><rect x="457.638" y="370.7407921009088" width="6.311200000000001" height="26.84720789909125" rx="2" fill="#6366f1"/></g>
  </g>
  <rect width="800" height="800" fill="url(#toplight)"/>
  <rect width="800" height="800" fill="url(#vig)"/>
  <text x="40" y="60" font-family="Arial, sans-serif" font-weight="900" font-size="26" letter-spacing="3" fill="#e6e9f2">LEOPARD<tspan fill="#3b82f6">Ø</tspan></text>
  <text x="40" y="752" font-family="Arial, sans-serif" font-weight="800" font-size="22" fill="#cbd2e0">Waveform Laptop Sleeve</text>
  <text x="760" y="752" text-anchor="end" font-family="monospace" font-size="14" letter-spacing="2" fill="#6b7280">LAPTOP SLEEVE</text>
</svg>