<svg xmlns="http://www.w3.org/2000/svg" viewBox="0 0 800 800" width="800" height="800">
  <defs>
    <radialGradient id="bg" cx="50%" cy="34%" r="75%">
      <stop offset="0%" stop-color="#141022"/><stop offset="55%" stop-color="#0a0812"/><stop offset="100%" stop-color="#04050a"/>
    </radialGradient>
    <radialGradient id="halo" cx="50%" cy="42%" r="50%">
      <stop offset="0%" stop-color="#3b82f6" stop-opacity="0.28"/><stop offset="100%" stop-color="#3b82f6" stop-opacity="0"/>
    </radialGradient>
    <filter id="glow" x="-30%" y="-30%" width="160%" height="160%"><feGaussianBlur stdDeviation="6"/></filter>
  </defs>
  <rect width="800" height="800" fill="url(#bg)"/>
  <rect width="800" height="800" fill="url(#halo)"/>
  <ellipse cx="400" cy="690" rx="230" ry="42" fill="#3b82f6" opacity="0.16"/>
  <g filter="url(#glow)" opacity="0.7"><rect x="296" y="425.5" width="9.100000000000001" height="26" rx="2" fill="#3b82f6"/><rect x="310.39285714285717" y="309.47521717706115" width="9.100000000000001" height="142.02478282293882" rx="2" fill="#6366f1"/><rect x="324.7857142857143" y="395.60169106286077" width="9.100000000000001" height="55.898308937139255" rx="2" fill="#3b82f6"/><rect x="339.17857142857144" y="317.1796821676553" width="9.100000000000001" height="134.3203178323447" rx="2" fill="#6366f1"/><rect x="353.57142857142856" y="367.6887379167828" width="9.100000000000001" height="83.81126208321716" rx="2" fill="#3b82f6"/><rect x="367.9642857142857" y="332.07700782305164" width="9.100000000000001" height="119.42299217694837" rx="2" fill="#6366f1"/><rect x="382.3571428571429" y="343.6146615515555" width="9.100000000000001" height="107.88533844844446" rx="2" fill="#3b82f6"/><rect x="396.75" y="353.1779578682671" width="9.100000000000001" height="98.3220421317329" rx="2" fill="#6366f1"/><rect x="411.1428571428571" y="324.97806766179" width="9.100000000000001" height="126.52193233821" rx="2" fill="#3b82f6"/><rect x="425.5357142857143" y="379.08135294371823" width="9.100000000000001" height="72.4186470562818" rx="2" fill="#6366f1"/><rect x="439.92857142857144" y="313.01649345009184" width="9.100000000000001" height="138.48350654990816" rx="2" fill="#3b82f6"/><rect x="454.32142857142856" y="408.06711397973874" width="9.100000000000001" height="43.43288602026126" rx="2" fill="#6366f1"/><rect x="468.7142857142857" y="308.5242306833077" width="9.100000000000001" height="142.97576931669232" rx="2" fill="#3b82f6"/><rect x="483.1071428571429" y="412.7895183353831" width="9.100000000000001" height="38.71048166461692" rx="2" fill="#6366f1"/></g>
  <g><rect x="250" y="240" width="300" height="220" rx="12" fill="#16131f" stroke="#3b82f6" stroke-opacity="0.55" stroke-width="2"/><path d="M210 480 L590 480 L610 520 L190 520 Z" fill="#0e0b16" stroke="#3b82f6" stroke-opacity="0.55" stroke-width="2"/></g>
  <g><rect x="296" y="425.5" width="9.100000000000001" height="26" rx="2" fill="#3b82f6"/><rect x="310.39285714285717" y="309.47521717706115" width="9.100000000000001" height="142.02478282293882" rx="2" fill="#6366f1"/><rect x="324.7857142857143" y="395.60169106286077" width="9.100000000000001" height="55.898308937139255" rx="2" fill="#3b82f6"/><rect x="339.17857142857144" y="317.1796821676553" width="9.100000000000001" height="134.3203178323447" rx="2" fill="#6366f1"/><rect x="353.57142857142856" y="367.6887379167828" width="9.100000000000001" height="83.81126208321716" rx="2" fill="#3b82f6"/><rect x="367.9642857142857" y="332.07700782305164" width="9.100000000000001" height="119.42299217694837" rx="2" fill="#6366f1"/><rect x="382.3571428571429" y="343.6146615515555" width="9.100000000000001" height="107.88533844844446" rx="2" fill="#3b82f6"/><rect x="396.75" y="353.1779578682671" width="9.100000000000001" height="98.3220421317329" rx="2" fill="#6366f1"/><rect x="411.1428571428571" y="324.97806766179" width="9.100000000000001" height="126.52193233821" rx="2" fill="#3b82f6"/><rect x="425.5357142857143" y="379.08135294371823" width="9.100000000000001" height="72.4186470562818" rx="2" fill="#6366f1"/><rect x="439.92857142857144" y="313.01649345009184" width="9.100000000000001" height="138.48350654990816" rx="2" fill="#3b82f6"/><rect x="454.32142857142856" y="408.06711397973874" width="9.100000000000001" height="43.43288602026126" rx="2" fill="#6366f1"/><rect x="468.7142857142857" y="308.5242306833077" width="9.100000000000001" height="142.97576931669232" rx="2" fill="#3b82f6"/><rect x="483.1071428571429" y="412.7895183353831" width="9.100000000000001" height="38.71048166461692" rx="2" fill="#6366f1"/></g>
  <text x="40" y="60" font-family="Arial, sans-serif" font-weight="900" font-size="26" letter-spacing="3" fill="#e6e9f2">LEOPARD<tspan fill="#3b82f6">Ø</tspan></text>
  <text x="40" y="752" font-family="Arial, sans-serif" font-weight="800" font-size="22" fill="#cbd2e0">Waveform Laptop Sleeve</text>
  <text x="760" y="752" text-anchor="end" font-family="monospace" font-size="14" letter-spacing="2" fill="#6b7280">LAPTOP SLEEVE</text>
</svg>