<svg xmlns="http://www.w3.org/2000/svg" viewBox="0 0 800 800" width="800" height="800">
  <defs>
    <radialGradient id="bg" cx="50%" cy="34%" r="75%">
      <stop offset="0%" stop-color="#141022"/><stop offset="55%" stop-color="#0a0812"/><stop offset="100%" stop-color="#04050a"/>
    </radialGradient>
    <radialGradient id="halo" cx="50%" cy="42%" r="50%">
      <stop offset="0%" stop-color="#22d3ee" stop-opacity="0.28"/><stop offset="100%" stop-color="#22d3ee" stop-opacity="0"/>
    </radialGradient>
    <filter id="glow" x="-30%" y="-30%" width="160%" height="160%"><feGaussianBlur stdDeviation="6"/></filter>
  </defs>
  <rect width="800" height="800" fill="url(#bg)"/>
  <rect width="800" height="800" fill="url(#halo)"/>
  <ellipse cx="400" cy="690" rx="230" ry="42" fill="#22d3ee" opacity="0.16"/>
  <g filter="url(#glow)" opacity="0.7"><path d="M289.5 384 L387 364.5 L393.5 423 L289.5 442.5 Z" fill="#22d3ee" fill-opacity="0.3" stroke="#22d3ee" stroke-width="3.9"/><path d="M510.5 384 L413 364.5 L406.5 423 L510.5 442.5 Z" fill="#3b82f6" fill-opacity="0.3" stroke="#3b82f6" stroke-width="3.9"/></g>
  <g><path d="M250 250 Q400 230 550 250 L560 560 Q400 600 240 560 Z" fill="#16131f" stroke="#22d3ee" stroke-opacity="0.55" stroke-width="2"/></g>
  <g><path d="M289.5 384 L387 364.5 L393.5 423 L289.5 442.5 Z" fill="#22d3ee" fill-opacity="0.3" stroke="#22d3ee" stroke-width="3.9"/><path d="M510.5 384 L413 364.5 L406.5 423 L510.5 442.5 Z" fill="#3b82f6" fill-opacity="0.3" stroke="#3b82f6" stroke-width="3.9"/></g>
  <text x="40" y="60" font-family="Arial, sans-serif" font-weight="900" font-size="26" letter-spacing="3" fill="#e6e9f2">LEOPARD<tspan fill="#22d3ee">Ø</tspan></text>
  <text x="40" y="752" font-family="Arial, sans-serif" font-weight="800" font-size="22" fill="#cbd2e0">Visor Crew Socks</text>
  <text x="760" y="752" text-anchor="end" font-family="monospace" font-size="14" letter-spacing="2" fill="#6b7280">SOCKS</text>
</svg>