<svg xmlns="http://www.w3.org/2000/svg" viewBox="0 0 800 800" width="800" height="800">
  <defs>
    <radialGradient id="bg" cx="50%" cy="34%" r="75%">
      <stop offset="0%" stop-color="#141022"/><stop offset="55%" stop-color="#0a0812"/><stop offset="100%" stop-color="#04050a"/>
    </radialGradient>
    <radialGradient id="halo" cx="50%" cy="42%" r="50%">
      <stop offset="0%" stop-color="#22d3ee" stop-opacity="0.28"/><stop offset="100%" stop-color="#22d3ee" stop-opacity="0"/>
    </radialGradient>
    <filter id="glow" x="-30%" y="-30%" width="160%" height="160%"><feGaussianBlur stdDeviation="6"/></filter>
  </defs>
  <rect width="800" height="800" fill="url(#bg)"/>
  <rect width="800" height="800" fill="url(#halo)"/>
  <ellipse cx="400" cy="690" rx="230" ry="42" fill="#22d3ee" opacity="0.16"/>
  <g filter="url(#glow)" opacity="0.7"><rect x="304" y="340" width="9" height="120" fill="#22d3ee"/><rect x="314.6666666666667" y="340" width="3.5999999999999996" height="120" fill="#22d3ee"/><rect x="325.3333333333333" y="340" width="3.5999999999999996" height="120" fill="#22d3ee"/><rect x="336" y="340" width="9" height="120" fill="#22d3ee"/><rect x="346.6666666666667" y="340" width="3.5999999999999996" height="120" fill="#22d3ee"/><rect x="357.3333333333333" y="340" width="3.5999999999999996" height="120" fill="#22d3ee"/><rect x="368" y="340" width="9" height="120" fill="#22d3ee"/><rect x="378.66666666666663" y="340" width="3.5999999999999996" height="120" fill="#22d3ee"/><rect x="389.3333333333333" y="340" width="3.5999999999999996" height="120" fill="#22d3ee"/><rect x="400" y="340" width="9" height="120" fill="#22d3ee"/><rect x="410.66666666666663" y="340" width="3.5999999999999996" height="120" fill="#22d3ee"/><rect x="421.3333333333333" y="340" width="3.5999999999999996" height="120" fill="#22d3ee"/><rect x="432" y="340" width="9" height="120" fill="#22d3ee"/><rect x="442.66666666666663" y="340" width="3.5999999999999996" height="120" fill="#22d3ee"/><rect x="453.3333333333333" y="340" width="3.5999999999999996" height="120" fill="#22d3ee"/><rect x="464" y="340" width="9" height="120" fill="#22d3ee"/><rect x="474.66666666666663" y="340" width="3.5999999999999996" height="120" fill="#22d3ee"/><rect x="485.3333333333333" y="340" width="3.5999999999999996" height="120" fill="#22d3ee"/></g>
  <g>
        <path d="M250 250 L330 210 Q400 250 470 210 L550 250 L600 330 L540 370 L540 600 Q400 630 260 600 L260 370 L200 330 Z" fill="#16131f" stroke="#22d3ee" stroke-opacity="0.55" stroke-width="2"/>
        <path d="M330 210 Q400 270 470 210" fill="none" stroke="#22d3ee" stroke-opacity="0.55" stroke-width="2"/></g>
  <g><rect x="304" y="340" width="9" height="120" fill="#22d3ee"/><rect x="314.6666666666667" y="340" width="3.5999999999999996" height="120" fill="#22d3ee"/><rect x="325.3333333333333" y="340" width="3.5999999999999996" height="120" fill="#22d3ee"/><rect x="336" y="340" width="9" height="120" fill="#22d3ee"/><rect x="346.6666666666667" y="340" width="3.5999999999999996" height="120" fill="#22d3ee"/><rect x="357.3333333333333" y="340" width="3.5999999999999996" height="120" fill="#22d3ee"/><rect x="368" y="340" width="9" height="120" fill="#22d3ee"/><rect x="378.66666666666663" y="340" width="3.5999999999999996" height="120" fill="#22d3ee"/><rect x="389.3333333333333" y="340" width="3.5999999999999996" height="120" fill="#22d3ee"/><rect x="400" y="340" width="9" height="120" fill="#22d3ee"/><rect x="410.66666666666663" y="340" width="3.5999999999999996" height="120" fill="#22d3ee"/><rect x="421.3333333333333" y="340" width="3.5999999999999996" height="120" fill="#22d3ee"/><rect x="432" y="340" width="9" height="120" fill="#22d3ee"/><rect x="442.66666666666663" y="340" width="3.5999999999999996" height="120" fill="#22d3ee"/><rect x="453.3333333333333" y="340" width="3.5999999999999996" height="120" fill="#22d3ee"/><rect x="464" y="340" width="9" height="120" fill="#22d3ee"/><rect x="474.66666666666663" y="340" width="3.5999999999999996" height="120" fill="#22d3ee"/><rect x="485.3333333333333" y="340" width="3.5999999999999996" height="120" fill="#22d3ee"/></g>
  <text x="40" y="60" font-family="Arial, sans-serif" font-weight="900" font-size="26" letter-spacing="3" fill="#e6e9f2">LEOPARD<tspan fill="#22d3ee">Ø</tspan></text>
  <text x="40" y="752" font-family="Arial, sans-serif" font-weight="800" font-size="22" fill="#cbd2e0">Barcode Tank</text>
  <text x="760" y="752" text-anchor="end" font-family="monospace" font-size="14" letter-spacing="2" fill="#6b7280">TANK</text>
</svg>