<svg xmlns="http://www.w3.org/2000/svg" viewBox="0 0 800 800" width="800" height="800">
  <defs>
    <radialGradient id="bg" cx="50%" cy="34%" r="75%">
      <stop offset="0%" stop-color="#141022"/><stop offset="55%" stop-color="#0a0812"/><stop offset="100%" stop-color="#04050a"/>
    </radialGradient>
    <radialGradient id="halo" cx="50%" cy="42%" r="52%">
      <stop offset="0%" stop-color="#a855f7" stop-opacity="0.26"/><stop offset="100%" stop-color="#a855f7" stop-opacity="0"/>
    </radialGradient>
    <linearGradient id="fab" x1="0" y1="0" x2="0" y2="1">
      <stop offset="0%" stop-color="#1d1830"/><stop offset="55%" stop-color="#140f1f"/><stop offset="100%" stop-color="#0a0712"/>
    </linearGradient>
    <filter id="glow" x="-40%" y="-40%" width="180%" height="180%"><feGaussianBlur stdDeviation="4"/></filter>
    <clipPath id="cp"><rect x="260" y="210" width="280" height="380" rx="10"/></clipPath>
  </defs>
  <rect width="800" height="800" fill="url(#bg)"/>
  <rect width="800" height="800" fill="url(#halo)"/>
  <ellipse cx="400" cy="690" rx="230" ry="42" fill="#a855f7" opacity="0.16"/>
  <g>
        <rect x="232" y="180" width="336" height="440" rx="6" fill="#0c0a14" stroke="#a855f7" stroke-opacity="0.55" stroke-width="2"/>
        <rect x="252" y="200" width="296" height="400" rx="4" fill="url(#fab)" stroke="#a855f7" stroke-opacity="0.3"/></g>
  <g clip-path="url(#cp)">
    <g filter="url(#glow)" opacity="0.9"><circle cx="400" cy="400" r="109.48" fill="none" stroke="#a855f7" stroke-width="3.8640000000000003" stroke-linecap="round" stroke-linejoin="round"/><circle cx="400" cy="400" r="77.28" stroke="#7c5cff" fill="none" stroke-width="3.2200000000000006"/><ellipse cx="470.84000000000003" cy="400" rx="12.880000000000003" ry="33.48800000000001" transform="rotate(90 470.84000000000003 400)" stroke="#a855f7" fill="none" stroke-width="2.576"/><ellipse cx="450.09144437925505" cy="450.09144437925505" rx="12.880000000000003" ry="33.48800000000001" transform="rotate(135 450.09144437925505 450.09144437925505)" stroke="#a855f7" fill="none" stroke-width="2.576"/><ellipse cx="400" cy="470.84000000000003" rx="12.880000000000003" ry="33.48800000000001" transform="rotate(180 400 470.84000000000003)" stroke="#a855f7" fill="none" stroke-width="2.576"/><ellipse cx="349.90855562074495" cy="450.09144437925505" rx="12.880000000000003" ry="33.48800000000001" transform="rotate(225 349.90855562074495 450.09144437925505)" stroke="#a855f7" fill="none" stroke-width="2.576"/><ellipse cx="329.15999999999997" cy="400" rx="12.880000000000003" ry="33.48800000000001" transform="rotate(270 329.15999999999997 400)" stroke="#a855f7" fill="none" stroke-width="2.576"/><ellipse cx="349.90855562074495" cy="349.90855562074495" rx="12.880000000000003" ry="33.48800000000001" transform="rotate(315 349.90855562074495 349.90855562074495)" stroke="#a855f7" fill="none" stroke-width="2.576"/><ellipse cx="400" cy="329.15999999999997" rx="12.880000000000003" ry="33.48800000000001" transform="rotate(360 400 329.15999999999997)" stroke="#a855f7" fill="none" stroke-width="2.576"/><ellipse cx="450.091444379255" cy="349.90855562074495" rx="12.880000000000003" ry="33.48800000000001" transform="rotate(405 450.091444379255 349.90855562074495)" stroke="#a855f7" fill="none" stroke-width="2.576"/><circle cx="400" cy="400" r="12.880000000000003" fill="#a855f7"/></g>
    <g><circle cx="400" cy="400" r="109.48" fill="none" stroke="#a855f7" stroke-width="3.8640000000000003" stroke-linecap="round" stroke-linejoin="round"/><circle cx="400" cy="400" r="77.28" stroke="#7c5cff" fill="none" stroke-width="3.2200000000000006"/><ellipse cx="470.84000000000003" cy="400" rx="12.880000000000003" ry="33.48800000000001" transform="rotate(90 470.84000000000003 400)" stroke="#a855f7" fill="none" stroke-width="2.576"/><ellipse cx="450.09144437925505" cy="450.09144437925505" rx="12.880000000000003" ry="33.48800000000001" transform="rotate(135 450.09144437925505 450.09144437925505)" stroke="#a855f7" fill="none" stroke-width="2.576"/><ellipse cx="400" cy="470.84000000000003" rx="12.880000000000003" ry="33.48800000000001" transform="rotate(180 400 470.84000000000003)" stroke="#a855f7" fill="none" stroke-width="2.576"/><ellipse cx="349.90855562074495" cy="450.09144437925505" rx="12.880000000000003" ry="33.48800000000001" transform="rotate(225 349.90855562074495 450.09144437925505)" stroke="#a855f7" fill="none" stroke-width="2.576"/><ellipse cx="329.15999999999997" cy="400" rx="12.880000000000003" ry="33.48800000000001" transform="rotate(270 329.15999999999997 400)" stroke="#a855f7" fill="none" stroke-width="2.576"/><ellipse cx="349.90855562074495" cy="349.90855562074495" rx="12.880000000000003" ry="33.48800000000001" transform="rotate(315 349.90855562074495 349.90855562074495)" stroke="#a855f7" fill="none" stroke-width="2.576"/><ellipse cx="400" cy="329.15999999999997" rx="12.880000000000003" ry="33.48800000000001" transform="rotate(360 400 329.15999999999997)" stroke="#a855f7" fill="none" stroke-width="2.576"/><ellipse cx="450.091444379255" cy="349.90855562074495" rx="12.880000000000003" ry="33.48800000000001" transform="rotate(405 450.091444379255 349.90855562074495)" stroke="#a855f7" fill="none" stroke-width="2.576"/><circle cx="400" cy="400" r="12.880000000000003" fill="#a855f7"/></g>
  </g>
  <text x="40" y="60" font-family="Arial, sans-serif" font-weight="900" font-size="26" letter-spacing="3" fill="#e6e9f2">LEOPARD<tspan fill="#a855f7">Ø</tspan></text>
  <text x="40" y="752" font-family="Arial, sans-serif" font-weight="800" font-size="22" fill="#cbd2e0">Mandala Wall Tapestry</text>
  <text x="760" y="752" text-anchor="end" font-family="monospace" font-size="14" letter-spacing="2" fill="#6b7280">TAPESTRY</text>
</svg>