<svg xmlns="http://www.w3.org/2000/svg" viewBox="0 0 800 800" width="800" height="800">
  <defs>
    <radialGradient id="bg" cx="50%" cy="34%" r="75%">
      <stop offset="0%" stop-color="#141022"/><stop offset="55%" stop-color="#0a0812"/><stop offset="100%" stop-color="#04050a"/>
    </radialGradient>
    <radialGradient id="halo" cx="50%" cy="42%" r="50%">
      <stop offset="0%" stop-color="#22d3ee" stop-opacity="0.28"/><stop offset="100%" stop-color="#22d3ee" stop-opacity="0"/>
    </radialGradient>
    <filter id="glow" x="-30%" y="-30%" width="160%" height="160%"><feGaussianBlur stdDeviation="6"/></filter>
  </defs>
  <rect width="800" height="800" fill="url(#bg)"/>
  <rect width="800" height="800" fill="url(#halo)"/>
  <ellipse cx="400" cy="690" rx="230" ry="42" fill="#22d3ee" opacity="0.16"/>
  <g filter="url(#glow)" opacity="0.7"><line x1="316" y1="328" x2="484" y2="328" stroke="#22d3ee" stroke-width="3.5999999999999996" stroke-opacity="0.8"/><line x1="316" y1="348.4" x2="484" y2="348.4" stroke="#a855f7" stroke-width="3.5999999999999996" stroke-opacity="0.8"/><line x1="316" y1="368.8" x2="484" y2="368.8" stroke="#22d3ee" stroke-width="3.5999999999999996" stroke-opacity="0.8"/><line x1="316" y1="389.2" x2="484" y2="389.2" stroke="#a855f7" stroke-width="3.5999999999999996" stroke-opacity="0.8"/><line x1="316" y1="409.6" x2="484" y2="409.6" stroke="#22d3ee" stroke-width="3.5999999999999996" stroke-opacity="0.8"/><line x1="316" y1="430" x2="484" y2="430" stroke="#a855f7" stroke-width="3.5999999999999996" stroke-opacity="0.8"/><line x1="316" y1="450.4" x2="484" y2="450.4" stroke="#22d3ee" stroke-width="3.5999999999999996" stroke-opacity="0.8"/><line x1="316" y1="470.8" x2="484" y2="470.8" stroke="#a855f7" stroke-width="3.5999999999999996" stroke-opacity="0.8"/><text x="400" y="496" text-anchor="middle" dominant-baseline="middle" font-family="Arial Black, Arial, sans-serif" font-weight="900" font-size="19.2" fill="#fff" letter-spacing="1">DYSTØPIA</text></g>
  <g>
        <path d="M250 250 L330 210 Q400 250 470 210 L550 250 L600 330 L540 370 L540 600 Q400 630 260 600 L260 370 L200 330 Z" fill="#16131f" stroke="#22d3ee" stroke-opacity="0.55" stroke-width="2"/>
        <path d="M330 210 Q400 270 470 210" fill="none" stroke="#22d3ee" stroke-opacity="0.55" stroke-width="2"/></g>
  <g><line x1="316" y1="328" x2="484" y2="328" stroke="#22d3ee" stroke-width="3.5999999999999996" stroke-opacity="0.8"/><line x1="316" y1="348.4" x2="484" y2="348.4" stroke="#a855f7" stroke-width="3.5999999999999996" stroke-opacity="0.8"/><line x1="316" y1="368.8" x2="484" y2="368.8" stroke="#22d3ee" stroke-width="3.5999999999999996" stroke-opacity="0.8"/><line x1="316" y1="389.2" x2="484" y2="389.2" stroke="#a855f7" stroke-width="3.5999999999999996" stroke-opacity="0.8"/><line x1="316" y1="409.6" x2="484" y2="409.6" stroke="#22d3ee" stroke-width="3.5999999999999996" stroke-opacity="0.8"/><line x1="316" y1="430" x2="484" y2="430" stroke="#a855f7" stroke-width="3.5999999999999996" stroke-opacity="0.8"/><line x1="316" y1="450.4" x2="484" y2="450.4" stroke="#22d3ee" stroke-width="3.5999999999999996" stroke-opacity="0.8"/><line x1="316" y1="470.8" x2="484" y2="470.8" stroke="#a855f7" stroke-width="3.5999999999999996" stroke-opacity="0.8"/><text x="400" y="496" text-anchor="middle" dominant-baseline="middle" font-family="Arial Black, Arial, sans-serif" font-weight="900" font-size="19.2" fill="#fff" letter-spacing="1">DYSTØPIA</text></g>
  <text x="40" y="60" font-family="Arial, sans-serif" font-weight="900" font-size="26" letter-spacing="3" fill="#e6e9f2">LEOPARD<tspan fill="#22d3ee">Ø</tspan></text>
  <text x="40" y="752" font-family="Arial, sans-serif" font-weight="800" font-size="22" fill="#cbd2e0">Full Tracklist Tee</text>
  <text x="760" y="752" text-anchor="end" font-family="monospace" font-size="14" letter-spacing="2" fill="#6b7280">TEE</text>
</svg>