<svg xmlns="http://www.w3.org/2000/svg" viewBox="0 0 800 800" width="800" height="800">
  <defs>
    <radialGradient id="bg" cx="50%" cy="34%" r="75%">
      <stop offset="0%" stop-color="#141022"/><stop offset="55%" stop-color="#0a0812"/><stop offset="100%" stop-color="#04050a"/>
    </radialGradient>
    <radialGradient id="halo" cx="50%" cy="42%" r="50%">
      <stop offset="0%" stop-color="#a855f7" stop-opacity="0.28"/><stop offset="100%" stop-color="#a855f7" stop-opacity="0"/>
    </radialGradient>
    <filter id="glow" x="-30%" y="-30%" width="160%" height="160%"><feGaussianBlur stdDeviation="6"/></filter>
  </defs>
  <rect width="800" height="800" fill="url(#bg)"/>
  <rect width="800" height="800" fill="url(#halo)"/>
  <ellipse cx="400" cy="690" rx="230" ry="42" fill="#a855f7" opacity="0.16"/>
  <g filter="url(#glow)" opacity="0.7"><circle cx="400" cy="400" r="102" fill="none" stroke="#a855f7" stroke-width="3.5999999999999996" stroke-linecap="round" stroke-linejoin="round"/><circle cx="400" cy="400" r="72" stroke="#7c5cff" fill="none" stroke-width="3"/><ellipse cx="466" cy="400" rx="12" ry="31.200000000000003" transform="rotate(90 466 400)" stroke="#a855f7" fill="none" stroke-width="2.4"/><ellipse cx="446.6690475583122" cy="446.6690475583121" rx="12" ry="31.200000000000003" transform="rotate(135 446.6690475583122 446.6690475583121)" stroke="#a855f7" fill="none" stroke-width="2.4"/><ellipse cx="400" cy="466" rx="12" ry="31.200000000000003" transform="rotate(180 400 466)" stroke="#a855f7" fill="none" stroke-width="2.4"/><ellipse cx="353.3309524416879" cy="446.6690475583122" rx="12" ry="31.200000000000003" transform="rotate(225 353.3309524416879 446.6690475583122)" stroke="#a855f7" fill="none" stroke-width="2.4"/><ellipse cx="334" cy="400" rx="12" ry="31.200000000000003" transform="rotate(270 334 400)" stroke="#a855f7" fill="none" stroke-width="2.4"/><ellipse cx="353.3309524416878" cy="353.3309524416879" rx="12" ry="31.200000000000003" transform="rotate(315 353.3309524416878 353.3309524416879)" stroke="#a855f7" fill="none" stroke-width="2.4"/><ellipse cx="400" cy="334" rx="12" ry="31.200000000000003" transform="rotate(360 400 334)" stroke="#a855f7" fill="none" stroke-width="2.4"/><ellipse cx="446.6690475583121" cy="353.3309524416878" rx="12" ry="31.200000000000003" transform="rotate(405 446.6690475583121 353.3309524416878)" stroke="#a855f7" fill="none" stroke-width="2.4"/><circle cx="400" cy="400" r="12" fill="#a855f7"/></g>
  <g>
        <path d="M250 250 L330 210 Q400 250 470 210 L550 250 L600 330 L540 370 L540 600 Q400 630 260 600 L260 370 L200 330 Z" fill="#16131f" stroke="#a855f7" stroke-opacity="0.55" stroke-width="2"/>
        <path d="M330 210 Q400 270 470 210" fill="none" stroke="#a855f7" stroke-opacity="0.55" stroke-width="2"/></g>
  <g><circle cx="400" cy="400" r="102" fill="none" stroke="#a855f7" stroke-width="3.5999999999999996" stroke-linecap="round" stroke-linejoin="round"/><circle cx="400" cy="400" r="72" stroke="#7c5cff" fill="none" stroke-width="3"/><ellipse cx="466" cy="400" rx="12" ry="31.200000000000003" transform="rotate(90 466 400)" stroke="#a855f7" fill="none" stroke-width="2.4"/><ellipse cx="446.6690475583122" cy="446.6690475583121" rx="12" ry="31.200000000000003" transform="rotate(135 446.6690475583122 446.6690475583121)" stroke="#a855f7" fill="none" stroke-width="2.4"/><ellipse cx="400" cy="466" rx="12" ry="31.200000000000003" transform="rotate(180 400 466)" stroke="#a855f7" fill="none" stroke-width="2.4"/><ellipse cx="353.3309524416879" cy="446.6690475583122" rx="12" ry="31.200000000000003" transform="rotate(225 353.3309524416879 446.6690475583122)" stroke="#a855f7" fill="none" stroke-width="2.4"/><ellipse cx="334" cy="400" rx="12" ry="31.200000000000003" transform="rotate(270 334 400)" stroke="#a855f7" fill="none" stroke-width="2.4"/><ellipse cx="353.3309524416878" cy="353.3309524416879" rx="12" ry="31.200000000000003" transform="rotate(315 353.3309524416878 353.3309524416879)" stroke="#a855f7" fill="none" stroke-width="2.4"/><ellipse cx="400" cy="334" rx="12" ry="31.200000000000003" transform="rotate(360 400 334)" stroke="#a855f7" fill="none" stroke-width="2.4"/><ellipse cx="446.6690475583121" cy="353.3309524416878" rx="12" ry="31.200000000000003" transform="rotate(405 446.6690475583121 353.3309524416878)" stroke="#a855f7" fill="none" stroke-width="2.4"/><circle cx="400" cy="400" r="12" fill="#a855f7"/></g>
  <text x="40" y="60" font-family="Arial, sans-serif" font-weight="900" font-size="26" letter-spacing="3" fill="#e6e9f2">LEOPARD<tspan fill="#a855f7">Ø</tspan></text>
  <text x="40" y="752" font-family="Arial, sans-serif" font-weight="800" font-size="22" fill="#cbd2e0">Oriental Mandala Tee</text>
  <text x="760" y="752" text-anchor="end" font-family="monospace" font-size="14" letter-spacing="2" fill="#6b7280">TEE</text>
</svg>