<svg xmlns="http://www.w3.org/2000/svg" viewBox="0 0 800 800" width="800" height="800">
  <defs>
    <radialGradient id="bg" cx="50%" cy="34%" r="75%">
      <stop offset="0%" stop-color="#141022"/><stop offset="55%" stop-color="#0a0812"/><stop offset="100%" stop-color="#04050a"/>
    </radialGradient>
    <radialGradient id="halo" cx="50%" cy="42%" r="50%">
      <stop offset="0%" stop-color="#3b82f6" stop-opacity="0.28"/><stop offset="100%" stop-color="#3b82f6" stop-opacity="0"/>
    </radialGradient>
    <filter id="glow" x="-30%" y="-30%" width="160%" height="160%"><feGaussianBlur stdDeviation="6"/></filter>
  </defs>
  <rect width="800" height="800" fill="url(#bg)"/>
  <rect width="800" height="800" fill="url(#halo)"/>
  <ellipse cx="400" cy="690" rx="230" ry="42" fill="#3b82f6" opacity="0.16"/>
  <g filter="url(#glow)" opacity="0.7"><rect x="304" y="442" width="8.4" height="24" rx="2" fill="#3b82f6"/><rect x="317.2857142857143" y="334.9002004711334" width="8.4" height="131.0997995288666" rx="2" fill="#6366f1"/><rect x="330.57142857142856" y="414.4015609811022" width="8.4" height="51.59843901889778" rx="2" fill="#3b82f6"/><rect x="343.8571428571429" y="342.0120143086049" width="8.4" height="123.9879856913951" rx="2" fill="#6366f1"/><rect x="357.14285714285717" y="388.63575807703035" width="8.4" height="77.36424192296968" rx="2" fill="#3b82f6"/><rect x="370.42857142857144" y="355.76339183666306" width="8.4" height="110.23660816333695" rx="2" fill="#6366f1"/><rect x="383.7142857142857" y="366.4135337398974" width="8.4" height="99.58646626010258" rx="2" fill="#3b82f6"/><rect x="397" y="375.2411918784004" width="8.4" height="90.7588081215996" rx="2" fill="#6366f1"/><rect x="410.2857142857143" y="349.2105239954985" width="8.4" height="116.78947600450154" rx="2" fill="#3b82f6"/><rect x="423.57142857142856" y="399.15201810189376" width="8.4" height="66.84798189810627" rx="2" fill="#6366f1"/><rect x="436.8571428571429" y="338.16907087700787" width="8.4" height="127.83092912299215" rx="2" fill="#3b82f6"/><rect x="450.1428571428571" y="425.9081052120665" width="8.4" height="40.09189478793347" rx="2" fill="#6366f1"/><rect x="463.42857142857144" y="334.0223667845917" width="8.4" height="131.97763321540828" rx="2" fill="#3b82f6"/><rect x="476.7142857142857" y="430.26724769419974" width="8.4" height="35.73275230580024" rx="2" fill="#6366f1"/></g>
  <g>
        <path d="M250 250 L330 210 Q400 250 470 210 L550 250 L600 330 L540 370 L540 600 Q400 630 260 600 L260 370 L200 330 Z" fill="#16131f" stroke="#3b82f6" stroke-opacity="0.55" stroke-width="2"/>
        <path d="M330 210 Q400 270 470 210" fill="none" stroke="#3b82f6" stroke-opacity="0.55" stroke-width="2"/></g>
  <g><rect x="304" y="442" width="8.4" height="24" rx="2" fill="#3b82f6"/><rect x="317.2857142857143" y="334.9002004711334" width="8.4" height="131.0997995288666" rx="2" fill="#6366f1"/><rect x="330.57142857142856" y="414.4015609811022" width="8.4" height="51.59843901889778" rx="2" fill="#3b82f6"/><rect x="343.8571428571429" y="342.0120143086049" width="8.4" height="123.9879856913951" rx="2" fill="#6366f1"/><rect x="357.14285714285717" y="388.63575807703035" width="8.4" height="77.36424192296968" rx="2" fill="#3b82f6"/><rect x="370.42857142857144" y="355.76339183666306" width="8.4" height="110.23660816333695" rx="2" fill="#6366f1"/><rect x="383.7142857142857" y="366.4135337398974" width="8.4" height="99.58646626010258" rx="2" fill="#3b82f6"/><rect x="397" y="375.2411918784004" width="8.4" height="90.7588081215996" rx="2" fill="#6366f1"/><rect x="410.2857142857143" y="349.2105239954985" width="8.4" height="116.78947600450154" rx="2" fill="#3b82f6"/><rect x="423.57142857142856" y="399.15201810189376" width="8.4" height="66.84798189810627" rx="2" fill="#6366f1"/><rect x="436.8571428571429" y="338.16907087700787" width="8.4" height="127.83092912299215" rx="2" fill="#3b82f6"/><rect x="450.1428571428571" y="425.9081052120665" width="8.4" height="40.09189478793347" rx="2" fill="#6366f1"/><rect x="463.42857142857144" y="334.0223667845917" width="8.4" height="131.97763321540828" rx="2" fill="#3b82f6"/><rect x="476.7142857142857" y="430.26724769419974" width="8.4" height="35.73275230580024" rx="2" fill="#6366f1"/></g>
  <text x="40" y="60" font-family="Arial, sans-serif" font-weight="900" font-size="26" letter-spacing="3" fill="#e6e9f2">LEOPARD<tspan fill="#3b82f6">Ø</tspan></text>
  <text x="40" y="752" font-family="Arial, sans-serif" font-weight="800" font-size="22" fill="#cbd2e0">Brass Trap Tee</text>
  <text x="760" y="752" text-anchor="end" font-family="monospace" font-size="14" letter-spacing="2" fill="#6b7280">TEE</text>
</svg>