<svg xmlns="http://www.w3.org/2000/svg" viewBox="0 0 800 800" width="800" height="800">
  <defs>
    <radialGradient id="bg" cx="50%" cy="34%" r="75%">
      <stop offset="0%" stop-color="#141022"/><stop offset="55%" stop-color="#0a0812"/><stop offset="100%" stop-color="#04050a"/>
    </radialGradient>
    <radialGradient id="halo" cx="50%" cy="42%" r="50%">
      <stop offset="0%" stop-color="#ff6a00" stop-opacity="0.28"/><stop offset="100%" stop-color="#ff6a00" stop-opacity="0"/>
    </radialGradient>
    <filter id="glow" x="-30%" y="-30%" width="160%" height="160%"><feGaussianBlur stdDeviation="6"/></filter>
  </defs>
  <rect width="800" height="800" fill="url(#bg)"/>
  <rect width="800" height="800" fill="url(#halo)"/>
  <ellipse cx="400" cy="690" rx="230" ry="42" fill="#ff6a00" opacity="0.16"/>
  <g filter="url(#glow)" opacity="0.7"><circle cx="400" cy="376" r="33.6" fill="#ff6a00"/><rect x="298" y="424" width="14.399999999999999" height="48" fill="#0c0a14" stroke="#ff2d00" stroke-opacity="0.6"/><rect x="316.54545454545456" y="352.41229963103484" width="14.399999999999999" height="119.58770036896516" fill="#0c0a14" stroke="#ff2d00" stroke-opacity="0.6"/><rect x="335.0909090909091" y="328.60566365118746" width="14.399999999999999" height="143.39433634881257" fill="#0c0a14" stroke="#ff2d00" stroke-opacity="0.6"/><rect x="353.6363636363636" y="368.46978261873284" width="14.399999999999999" height="103.53021738126715" fill="#0c0a14" stroke="#ff2d00" stroke-opacity="0.6"/><rect x="372.1818181818182" y="402.6025682463762" width="14.399999999999999" height="69.39743175362378" fill="#0c0a14" stroke="#ff2d00" stroke-opacity="0.6"/><rect x="390.72727272727275" y="339.9565912299108" width="14.399999999999999" height="132.04340877008914" fill="#0c0a14" stroke="#ff2d00" stroke-opacity="0.6"/><rect x="409.27272727272725" y="333.40521573336594" width="14.399999999999999" height="138.59478426663404" fill="#0c0a14" stroke="#ff2d00" stroke-opacity="0.6"/><rect x="427.8181818181818" y="387.32114395033545" width="14.399999999999999" height="84.67885604966457" fill="#0c0a14" stroke="#ff2d00" stroke-opacity="0.6"/><rect x="446.3636363636364" y="382.2817002810979" width="14.399999999999999" height="89.71829971890209" fill="#0c0a14" stroke="#ff2d00" stroke-opacity="0.6"/><rect x="464.90909090909093" y="331.7293384477968" width="14.399999999999999" height="140.2706615522032" fill="#0c0a14" stroke="#ff2d00" stroke-opacity="0.6"/><rect x="483.4545454545455" y="342.76284119918364" width="14.399999999999999" height="129.2371588008164" fill="#0c0a14" stroke="#ff2d00" stroke-opacity="0.6"/></g>
  <g>
        <path d="M250 250 L330 210 Q400 250 470 210 L550 250 L600 330 L540 370 L540 600 Q400 630 260 600 L260 370 L200 330 Z" fill="#16131f" stroke="#ff6a00" stroke-opacity="0.55" stroke-width="2"/>
        <path d="M330 210 Q400 270 470 210" fill="none" stroke="#ff6a00" stroke-opacity="0.55" stroke-width="2"/></g>
  <g><circle cx="400" cy="376" r="33.6" fill="#ff6a00"/><rect x="298" y="424" width="14.399999999999999" height="48" fill="#0c0a14" stroke="#ff2d00" stroke-opacity="0.6"/><rect x="316.54545454545456" y="352.41229963103484" width="14.399999999999999" height="119.58770036896516" fill="#0c0a14" stroke="#ff2d00" stroke-opacity="0.6"/><rect x="335.0909090909091" y="328.60566365118746" width="14.399999999999999" height="143.39433634881257" fill="#0c0a14" stroke="#ff2d00" stroke-opacity="0.6"/><rect x="353.6363636363636" y="368.46978261873284" width="14.399999999999999" height="103.53021738126715" fill="#0c0a14" stroke="#ff2d00" stroke-opacity="0.6"/><rect x="372.1818181818182" y="402.6025682463762" width="14.399999999999999" height="69.39743175362378" fill="#0c0a14" stroke="#ff2d00" stroke-opacity="0.6"/><rect x="390.72727272727275" y="339.9565912299108" width="14.399999999999999" height="132.04340877008914" fill="#0c0a14" stroke="#ff2d00" stroke-opacity="0.6"/><rect x="409.27272727272725" y="333.40521573336594" width="14.399999999999999" height="138.59478426663404" fill="#0c0a14" stroke="#ff2d00" stroke-opacity="0.6"/><rect x="427.8181818181818" y="387.32114395033545" width="14.399999999999999" height="84.67885604966457" fill="#0c0a14" stroke="#ff2d00" stroke-opacity="0.6"/><rect x="446.3636363636364" y="382.2817002810979" width="14.399999999999999" height="89.71829971890209" fill="#0c0a14" stroke="#ff2d00" stroke-opacity="0.6"/><rect x="464.90909090909093" y="331.7293384477968" width="14.399999999999999" height="140.2706615522032" fill="#0c0a14" stroke="#ff2d00" stroke-opacity="0.6"/><rect x="483.4545454545455" y="342.76284119918364" width="14.399999999999999" height="129.2371588008164" fill="#0c0a14" stroke="#ff2d00" stroke-opacity="0.6"/></g>
  <text x="40" y="60" font-family="Arial, sans-serif" font-weight="900" font-size="26" letter-spacing="3" fill="#e6e9f2">LEOPARD<tspan fill="#ff6a00">Ø</tspan></text>
  <text x="40" y="752" font-family="Arial, sans-serif" font-weight="800" font-size="22" fill="#cbd2e0">War Drum Skyline Tee</text>
  <text x="760" y="752" text-anchor="end" font-family="monospace" font-size="14" letter-spacing="2" fill="#6b7280">TEE</text>
</svg>