<svg xmlns="http://www.w3.org/2000/svg" viewBox="0 0 800 800" width="800" height="800">
  <defs>
    <radialGradient id="bg" cx="50%" cy="34%" r="75%">
      <stop offset="0%" stop-color="#141022"/><stop offset="55%" stop-color="#0a0812"/><stop offset="100%" stop-color="#04050a"/>
    </radialGradient>
    <radialGradient id="halo" cx="50%" cy="42%" r="50%">
      <stop offset="0%" stop-color="#22d3ee" stop-opacity="0.28"/><stop offset="100%" stop-color="#22d3ee" stop-opacity="0"/>
    </radialGradient>
    <filter id="glow" x="-30%" y="-30%" width="160%" height="160%"><feGaussianBlur stdDeviation="6"/></filter>
  </defs>
  <rect width="800" height="800" fill="url(#bg)"/>
  <rect width="800" height="800" fill="url(#halo)"/>
  <ellipse cx="400" cy="690" rx="230" ry="42" fill="#22d3ee" opacity="0.16"/>
  <g filter="url(#glow)" opacity="0.7"><line x1="309" y1="332" x2="491" y2="332" stroke="#22d3ee" stroke-width="3.9" stroke-opacity="0.8"/><line x1="309" y1="354.1" x2="491" y2="354.1" stroke="#a855f7" stroke-width="3.9" stroke-opacity="0.8"/><line x1="309" y1="376.2" x2="491" y2="376.2" stroke="#22d3ee" stroke-width="3.9" stroke-opacity="0.8"/><line x1="309" y1="398.3" x2="491" y2="398.3" stroke="#a855f7" stroke-width="3.9" stroke-opacity="0.8"/><line x1="309" y1="420.4" x2="491" y2="420.4" stroke="#22d3ee" stroke-width="3.9" stroke-opacity="0.8"/><line x1="309" y1="442.5" x2="491" y2="442.5" stroke="#a855f7" stroke-width="3.9" stroke-opacity="0.8"/><line x1="309" y1="464.6" x2="491" y2="464.6" stroke="#22d3ee" stroke-width="3.9" stroke-opacity="0.8"/><line x1="309" y1="486.70000000000005" x2="491" y2="486.70000000000005" stroke="#a855f7" stroke-width="3.9" stroke-opacity="0.8"/><text x="400" y="514" text-anchor="middle" dominant-baseline="middle" font-family="Arial Black, Arial, sans-serif" font-weight="900" font-size="20.8" fill="#fff" letter-spacing="1">DYSTØPIA</text></g>
  <g><path d="M250 250 Q400 230 550 250 L560 560 Q400 600 240 560 Z" fill="#16131f" stroke="#22d3ee" stroke-opacity="0.55" stroke-width="2"/></g>
  <g><line x1="309" y1="332" x2="491" y2="332" stroke="#22d3ee" stroke-width="3.9" stroke-opacity="0.8"/><line x1="309" y1="354.1" x2="491" y2="354.1" stroke="#a855f7" stroke-width="3.9" stroke-opacity="0.8"/><line x1="309" y1="376.2" x2="491" y2="376.2" stroke="#22d3ee" stroke-width="3.9" stroke-opacity="0.8"/><line x1="309" y1="398.3" x2="491" y2="398.3" stroke="#a855f7" stroke-width="3.9" stroke-opacity="0.8"/><line x1="309" y1="420.4" x2="491" y2="420.4" stroke="#22d3ee" stroke-width="3.9" stroke-opacity="0.8"/><line x1="309" y1="442.5" x2="491" y2="442.5" stroke="#a855f7" stroke-width="3.9" stroke-opacity="0.8"/><line x1="309" y1="464.6" x2="491" y2="464.6" stroke="#22d3ee" stroke-width="3.9" stroke-opacity="0.8"/><line x1="309" y1="486.70000000000005" x2="491" y2="486.70000000000005" stroke="#a855f7" stroke-width="3.9" stroke-opacity="0.8"/><text x="400" y="514" text-anchor="middle" dominant-baseline="middle" font-family="Arial Black, Arial, sans-serif" font-weight="900" font-size="20.8" fill="#fff" letter-spacing="1">DYSTØPIA</text></g>
  <text x="40" y="60" font-family="Arial, sans-serif" font-weight="900" font-size="26" letter-spacing="3" fill="#e6e9f2">LEOPARD<tspan fill="#22d3ee">Ø</tspan></text>
  <text x="40" y="752" font-family="Arial, sans-serif" font-weight="800" font-size="22" fill="#cbd2e0">Tracklist Tote</text>
  <text x="760" y="752" text-anchor="end" font-family="monospace" font-size="14" letter-spacing="2" fill="#6b7280">TOTE</text>
</svg>