<svg xmlns="http://www.w3.org/2000/svg" viewBox="0 0 800 800" width="800" height="800">
  <defs>
    <radialGradient id="bg" cx="50%" cy="34%" r="75%">
      <stop offset="0%" stop-color="#141022"/><stop offset="55%" stop-color="#0a0812"/><stop offset="100%" stop-color="#04050a"/>
    </radialGradient>
    <radialGradient id="halo" cx="50%" cy="42%" r="52%">
      <stop offset="0%" stop-color="#22d3ee" stop-opacity="0.26"/><stop offset="100%" stop-color="#22d3ee" stop-opacity="0"/>
    </radialGradient>
    <linearGradient id="fab" x1="0" y1="0" x2="0" y2="1">
      <stop offset="0%" stop-color="#1d1830"/><stop offset="55%" stop-color="#140f1f"/><stop offset="100%" stop-color="#0a0712"/>
    </linearGradient>
    <filter id="glow" x="-40%" y="-40%" width="180%" height="180%"><feGaussianBlur stdDeviation="4"/></filter>
    <clipPath id="cp"><rect x="276" y="264" width="248" height="282" rx="10"/></clipPath>
  </defs>
  <rect width="800" height="800" fill="url(#bg)"/>
  <rect width="800" height="800" fill="url(#halo)"/>
  <ellipse cx="400" cy="690" rx="230" ry="42" fill="#22d3ee" opacity="0.16"/>
  <g><path d="M250 250 Q400 230 550 250 L560 560 Q400 600 240 560 Z" fill="url(#fab)" stroke="#22d3ee" stroke-opacity="0.55" stroke-width="2"/></g>
  <g clip-path="url(#cp)">
    <g filter="url(#glow)" opacity="0.9"><line x1="320.144" y1="336.552" x2="479.856" y2="336.552" stroke="#22d3ee" stroke-width="3.4223999999999997" stroke-opacity="0.8"/><line x1="320.144" y1="355.9456" x2="479.856" y2="355.9456" stroke="#a855f7" stroke-width="3.4223999999999997" stroke-opacity="0.8"/><line x1="320.144" y1="375.3392" x2="479.856" y2="375.3392" stroke="#22d3ee" stroke-width="3.4223999999999997" stroke-opacity="0.8"/><line x1="320.144" y1="394.7328" x2="479.856" y2="394.7328" stroke="#a855f7" stroke-width="3.4223999999999997" stroke-opacity="0.8"/><line x1="320.144" y1="414.12640000000005" x2="479.856" y2="414.12640000000005" stroke="#22d3ee" stroke-width="3.4223999999999997" stroke-opacity="0.8"/><line x1="320.144" y1="433.52000000000004" x2="479.856" y2="433.52000000000004" stroke="#a855f7" stroke-width="3.4223999999999997" stroke-opacity="0.8"/><line x1="320.144" y1="452.91360000000003" x2="479.856" y2="452.91360000000003" stroke="#22d3ee" stroke-width="3.4223999999999997" stroke-opacity="0.8"/><line x1="320.144" y1="472.3072" x2="479.856" y2="472.3072" stroke="#a855f7" stroke-width="3.4223999999999997" stroke-opacity="0.8"/><text x="400" y="496.264" text-anchor="middle" dominant-baseline="middle" font-family="Arial Black, Arial, sans-serif" font-weight="900" font-size="18.2528" fill="#fff" letter-spacing="1">DYSTØPIA</text></g>
    <g><line x1="320.144" y1="336.552" x2="479.856" y2="336.552" stroke="#22d3ee" stroke-width="3.4223999999999997" stroke-opacity="0.8"/><line x1="320.144" y1="355.9456" x2="479.856" y2="355.9456" stroke="#a855f7" stroke-width="3.4223999999999997" stroke-opacity="0.8"/><line x1="320.144" y1="375.3392" x2="479.856" y2="375.3392" stroke="#22d3ee" stroke-width="3.4223999999999997" stroke-opacity="0.8"/><line x1="320.144" y1="394.7328" x2="479.856" y2="394.7328" stroke="#a855f7" stroke-width="3.4223999999999997" stroke-opacity="0.8"/><line x1="320.144" y1="414.12640000000005" x2="479.856" y2="414.12640000000005" stroke="#22d3ee" stroke-width="3.4223999999999997" stroke-opacity="0.8"/><line x1="320.144" y1="433.52000000000004" x2="479.856" y2="433.52000000000004" stroke="#a855f7" stroke-width="3.4223999999999997" stroke-opacity="0.8"/><line x1="320.144" y1="452.91360000000003" x2="479.856" y2="452.91360000000003" stroke="#22d3ee" stroke-width="3.4223999999999997" stroke-opacity="0.8"/><line x1="320.144" y1="472.3072" x2="479.856" y2="472.3072" stroke="#a855f7" stroke-width="3.4223999999999997" stroke-opacity="0.8"/><text x="400" y="496.264" text-anchor="middle" dominant-baseline="middle" font-family="Arial Black, Arial, sans-serif" font-weight="900" font-size="18.2528" fill="#fff" letter-spacing="1">DYSTØPIA</text></g>
  </g>
  <text x="40" y="60" font-family="Arial, sans-serif" font-weight="900" font-size="26" letter-spacing="3" fill="#e6e9f2">LEOPARD<tspan fill="#22d3ee">Ø</tspan></text>
  <text x="40" y="752" font-family="Arial, sans-serif" font-weight="800" font-size="22" fill="#cbd2e0">Tracklist Tote</text>
  <text x="760" y="752" text-anchor="end" font-family="monospace" font-size="14" letter-spacing="2" fill="#6b7280">TOTE</text>
</svg>