<svg xmlns="http://www.w3.org/2000/svg" viewBox="0 0 800 800" width="800" height="800">
  <defs>
    <radialGradient id="bg" cx="50%" cy="34%" r="75%">
      <stop offset="0%" stop-color="#141022"/><stop offset="55%" stop-color="#0a0812"/><stop offset="100%" stop-color="#04050a"/>
    </radialGradient>
    <radialGradient id="halo" cx="50%" cy="42%" r="52%">
      <stop offset="0%" stop-color="#ff6a00" stop-opacity="0.26"/><stop offset="100%" stop-color="#ff6a00" stop-opacity="0"/>
    </radialGradient>
    <linearGradient id="fab" x1="0" y1="0" x2="0" y2="1">
      <stop offset="0%" stop-color="#272036"/><stop offset="52%" stop-color="#171122"/><stop offset="100%" stop-color="#090610"/>
    </linearGradient>
    <linearGradient id="toplight" x1="0" y1="0" x2="0" y2="1">
      <stop offset="0%" stop-color="#ffffff" stop-opacity="0.11"/><stop offset="44%" stop-color="#ffffff" stop-opacity="0"/>
    </linearGradient>
    <radialGradient id="vig" cx="50%" cy="44%" r="62%">
      <stop offset="0%" stop-color="#04050a" stop-opacity="0"/><stop offset="76%" stop-color="#04050a" stop-opacity="0"/><stop offset="100%" stop-color="#04050a" stop-opacity="0.55"/>
    </radialGradient>
    <filter id="glow" x="-40%" y="-40%" width="180%" height="180%"><feGaussianBlur stdDeviation="4"/></filter>
    <filter id="soft" x="-60%" y="-60%" width="220%" height="220%"><feGaussianBlur stdDeviation="14"/></filter>
    <filter id="rim" x="-35%" y="-35%" width="170%" height="170%"><feDropShadow dx="0" dy="0" stdDeviation="9" flood-color="#ff6a00" flood-opacity="0.5"/></filter>
    <clipPath id="cp"><rect x="262" y="270" width="276" height="124" rx="10"/></clipPath>
  </defs>
  <rect width="800" height="800" fill="url(#bg)"/>
  <rect width="800" height="800" fill="url(#halo)"/>
  <ellipse cx="400" cy="696" rx="226" ry="40" fill="#ff6a00" opacity="0.14"/>
  <ellipse cx="400" cy="676" rx="166" ry="24" fill="#020308" opacity="0.7" filter="url(#soft)"/>
  <g filter="url(#rim)"><path d="M220 420 Q400 220 580 420 Q500 380 460 420 Q420 360 400 420 Q380 360 340 420 Q300 380 220 420 Z" fill="url(#fab)" stroke="#ff6a00" stroke-opacity="0.55" stroke-width="2"/><line x1="400" y1="420" x2="400" y2="600" stroke="#ff6a00" stroke-opacity="0.55" stroke-width="2"/></g>
  <g clip-path="url(#cp)">
    
    <g filter="url(#glow)" opacity="0.9"><circle cx="400" cy="320.592" r="15.971200000000001" fill="#ff6a00"/><rect x="351.516" y="343.408" width="6.844799999999999" height="22.816000000000003" fill="#0c0a14" stroke="#ff2d00" stroke-opacity="0.6"/><rect x="360.33127272727273" y="309.3799797579519" width="6.844799999999999" height="56.8440202420481" fill="#0c0a14" stroke="#ff2d00" stroke-opacity="0.6"/><rect x="369.14654545454545" y="298.06389212219773" width="6.844799999999999" height="68.16010787780225" fill="#0c0a14" stroke="#ff2d00" stroke-opacity="0.6"/><rect x="377.9618181818182" y="317.0126366714377" width="6.844799999999999" height="49.21136332856232" fill="#0c0a14" stroke="#ff2d00" stroke-opacity="0.6"/><rect x="386.77709090909093" y="333.2370874397775" width="6.844799999999999" height="32.9869125602225" fill="#0c0a14" stroke="#ff2d00" stroke-opacity="0.6"/><rect x="395.59236363636364" y="303.4593663646176" width="6.844799999999999" height="62.76463363538237" fill="#0c0a14" stroke="#ff2d00" stroke-opacity="0.6"/><rect x="404.40763636363636" y="300.3452792119266" width="6.844799999999999" height="65.87872078807337" fill="#0c0a14" stroke="#ff2d00" stroke-opacity="0.6"/><rect x="413.22290909090907" y="325.9733170910594" width="6.844799999999999" height="40.250682908940554" fill="#0c0a14" stroke="#ff2d00" stroke-opacity="0.6"/><rect x="422.03818181818184" y="323.5779015336152" width="6.844799999999999" height="42.64609846638479" fill="#0c0a14" stroke="#ff2d00" stroke-opacity="0.6"/><rect x="430.85345454545455" y="299.5486788755194" width="6.844799999999999" height="66.67532112448059" fill="#0c0a14" stroke="#ff2d00" stroke-opacity="0.6"/><rect x="439.66872727272727" y="304.7932705166786" width="6.844799999999999" height="61.43072948332139" fill="#0c0a14" stroke="#ff2d00" stroke-opacity="0.6"/></g>
    <g><circle cx="400" cy="320.592" r="15.971200000000001" fill="#ff6a00"/><rect x="351.516" y="343.408" width="6.844799999999999" height="22.816000000000003" fill="#0c0a14" stroke="#ff2d00" stroke-opacity="0.6"/><rect x="360.33127272727273" y="309.3799797579519" width="6.844799999999999" height="56.8440202420481" fill="#0c0a14" stroke="#ff2d00" stroke-opacity="0.6"/><rect x="369.14654545454545" y="298.06389212219773" width="6.844799999999999" height="68.16010787780225" fill="#0c0a14" stroke="#ff2d00" stroke-opacity="0.6"/><rect x="377.9618181818182" y="317.0126366714377" width="6.844799999999999" height="49.21136332856232" fill="#0c0a14" stroke="#ff2d00" stroke-opacity="0.6"/><rect x="386.77709090909093" y="333.2370874397775" width="6.844799999999999" height="32.9869125602225" fill="#0c0a14" stroke="#ff2d00" stroke-opacity="0.6"/><rect x="395.59236363636364" y="303.4593663646176" width="6.844799999999999" height="62.76463363538237" fill="#0c0a14" stroke="#ff2d00" stroke-opacity="0.6"/><rect x="404.40763636363636" y="300.3452792119266" width="6.844799999999999" height="65.87872078807337" fill="#0c0a14" stroke="#ff2d00" stroke-opacity="0.6"/><rect x="413.22290909090907" y="325.9733170910594" width="6.844799999999999" height="40.250682908940554" fill="#0c0a14" stroke="#ff2d00" stroke-opacity="0.6"/><rect x="422.03818181818184" y="323.5779015336152" width="6.844799999999999" height="42.64609846638479" fill="#0c0a14" stroke="#ff2d00" stroke-opacity="0.6"/><rect x="430.85345454545455" y="299.5486788755194" width="6.844799999999999" height="66.67532112448059" fill="#0c0a14" stroke="#ff2d00" stroke-opacity="0.6"/><rect x="439.66872727272727" y="304.7932705166786" width="6.844799999999999" height="61.43072948332139" fill="#0c0a14" stroke="#ff2d00" stroke-opacity="0.6"/></g>
  </g>
  <rect width="800" height="800" fill="url(#toplight)"/>
  <rect width="800" height="800" fill="url(#vig)"/>
  <text x="40" y="60" font-family="Arial, sans-serif" font-weight="900" font-size="26" letter-spacing="3" fill="#e6e9f2">LEOPARD<tspan fill="#ff6a00">Ø</tspan></text>
  <text x="40" y="752" font-family="Arial, sans-serif" font-weight="800" font-size="22" fill="#cbd2e0">Skyline Storm Umbrella</text>
  <text x="760" y="752" text-anchor="end" font-family="monospace" font-size="14" letter-spacing="2" fill="#6b7280">UMBRELLA</text>
</svg>