<svg xmlns="http://www.w3.org/2000/svg" viewBox="0 0 800 800" width="800" height="800">
  <defs>
    <radialGradient id="bg" cx="50%" cy="34%" r="75%">
      <stop offset="0%" stop-color="#141022"/><stop offset="55%" stop-color="#0a0812"/><stop offset="100%" stop-color="#04050a"/>
    </radialGradient>
    <radialGradient id="halo" cx="50%" cy="42%" r="50%">
      <stop offset="0%" stop-color="#ff6a00" stop-opacity="0.28"/><stop offset="100%" stop-color="#ff6a00" stop-opacity="0"/>
    </radialGradient>
    <filter id="glow" x="-30%" y="-30%" width="160%" height="160%"><feGaussianBlur stdDeviation="6"/></filter>
  </defs>
  <rect width="800" height="800" fill="url(#bg)"/>
  <rect width="800" height="800" fill="url(#halo)"/>
  <ellipse cx="400" cy="690" rx="230" ry="42" fill="#ff6a00" opacity="0.16"/>
  <g filter="url(#glow)" opacity="0.7"><circle cx="400" cy="338" r="30.800000000000004" fill="#ff6a00"/><rect x="306.5" y="382" width="13.2" height="44" fill="#0c0a14" stroke="#ff2d00" stroke-opacity="0.6"/><rect x="323.5" y="316.3779413284486" width="13.2" height="109.62205867155139" fill="#0c0a14" stroke="#ff2d00" stroke-opacity="0.6"/><rect x="340.5" y="294.5551916802551" width="13.2" height="131.44480831974488" fill="#0c0a14" stroke="#ff2d00" stroke-opacity="0.6"/><rect x="357.5" y="331.09730073383844" width="13.2" height="94.90269926616155" fill="#0c0a14" stroke="#ff2d00" stroke-opacity="0.6"/><rect x="374.5" y="362.3856875591782" width="13.2" height="63.61431244082179" fill="#0c0a14" stroke="#ff2d00" stroke-opacity="0.6"/><rect x="391.5" y="304.9602086274183" width="13.2" height="121.0397913725817" fill="#0c0a14" stroke="#ff2d00" stroke-opacity="0.6"/><rect x="408.5" y="298.9547810889188" width="13.2" height="127.0452189110812" fill="#0c0a14" stroke="#ff2d00" stroke-opacity="0.6"/><rect x="425.5" y="348.37771528780746" width="13.2" height="77.62228471219252" fill="#0c0a14" stroke="#ff2d00" stroke-opacity="0.6"/><rect x="442.5" y="343.7582252576731" width="13.2" height="82.24177474232691" fill="#0c0a14" stroke="#ff2d00" stroke-opacity="0.6"/><rect x="459.5" y="297.4185602438138" width="13.2" height="128.58143975618626" fill="#0c0a14" stroke="#ff2d00" stroke-opacity="0.6"/><rect x="476.5" y="307.532604432585" width="13.2" height="118.46739556741502" fill="#0c0a14" stroke="#ff2d00" stroke-opacity="0.6"/></g>
  <g><path d="M220 420 Q400 220 580 420 Q500 380 460 420 Q420 360 400 420 Q380 360 340 420 Q300 380 220 420 Z" fill="#16131f" stroke="#ff6a00" stroke-opacity="0.55" stroke-width="2"/><line x1="400" y1="420" x2="400" y2="600" stroke="#ff6a00" stroke-opacity="0.55" stroke-width="2"/></g>
  <g><circle cx="400" cy="338" r="30.800000000000004" fill="#ff6a00"/><rect x="306.5" y="382" width="13.2" height="44" fill="#0c0a14" stroke="#ff2d00" stroke-opacity="0.6"/><rect x="323.5" y="316.3779413284486" width="13.2" height="109.62205867155139" fill="#0c0a14" stroke="#ff2d00" stroke-opacity="0.6"/><rect x="340.5" y="294.5551916802551" width="13.2" height="131.44480831974488" fill="#0c0a14" stroke="#ff2d00" stroke-opacity="0.6"/><rect x="357.5" y="331.09730073383844" width="13.2" height="94.90269926616155" fill="#0c0a14" stroke="#ff2d00" stroke-opacity="0.6"/><rect x="374.5" y="362.3856875591782" width="13.2" height="63.61431244082179" fill="#0c0a14" stroke="#ff2d00" stroke-opacity="0.6"/><rect x="391.5" y="304.9602086274183" width="13.2" height="121.0397913725817" fill="#0c0a14" stroke="#ff2d00" stroke-opacity="0.6"/><rect x="408.5" y="298.9547810889188" width="13.2" height="127.0452189110812" fill="#0c0a14" stroke="#ff2d00" stroke-opacity="0.6"/><rect x="425.5" y="348.37771528780746" width="13.2" height="77.62228471219252" fill="#0c0a14" stroke="#ff2d00" stroke-opacity="0.6"/><rect x="442.5" y="343.7582252576731" width="13.2" height="82.24177474232691" fill="#0c0a14" stroke="#ff2d00" stroke-opacity="0.6"/><rect x="459.5" y="297.4185602438138" width="13.2" height="128.58143975618626" fill="#0c0a14" stroke="#ff2d00" stroke-opacity="0.6"/><rect x="476.5" y="307.532604432585" width="13.2" height="118.46739556741502" fill="#0c0a14" stroke="#ff2d00" stroke-opacity="0.6"/></g>
  <text x="40" y="60" font-family="Arial, sans-serif" font-weight="900" font-size="26" letter-spacing="3" fill="#e6e9f2">LEOPARD<tspan fill="#ff6a00">Ø</tspan></text>
  <text x="40" y="752" font-family="Arial, sans-serif" font-weight="800" font-size="22" fill="#cbd2e0">Skyline Storm Umbrella</text>
  <text x="760" y="752" text-anchor="end" font-family="monospace" font-size="14" letter-spacing="2" fill="#6b7280">UMBRELLA</text>
</svg>