<svg xmlns="http://www.w3.org/2000/svg" viewBox="0 0 800 800" width="800" height="800">
  <defs>
    <radialGradient id="bg" cx="50%" cy="34%" r="75%">
      <stop offset="0%" stop-color="#141022"/><stop offset="55%" stop-color="#0a0812"/><stop offset="100%" stop-color="#04050a"/>
    </radialGradient>
    <radialGradient id="halo" cx="50%" cy="42%" r="52%">
      <stop offset="0%" stop-color="#ff6a00" stop-opacity="0.26"/><stop offset="100%" stop-color="#ff6a00" stop-opacity="0"/>
    </radialGradient>
    <linearGradient id="fab" x1="0" y1="0" x2="0" y2="1">
      <stop offset="0%" stop-color="#272036"/><stop offset="52%" stop-color="#171122"/><stop offset="100%" stop-color="#090610"/>
    </linearGradient>
    <linearGradient id="toplight" x1="0" y1="0" x2="0" y2="1">
      <stop offset="0%" stop-color="#ffffff" stop-opacity="0.11"/><stop offset="44%" stop-color="#ffffff" stop-opacity="0"/>
    </linearGradient>
    <radialGradient id="vig" cx="50%" cy="44%" r="62%">
      <stop offset="0%" stop-color="#04050a" stop-opacity="0"/><stop offset="76%" stop-color="#04050a" stop-opacity="0"/><stop offset="100%" stop-color="#04050a" stop-opacity="0.55"/>
    </radialGradient>
    <filter id="glow" x="-40%" y="-40%" width="180%" height="180%"><feGaussianBlur stdDeviation="4"/></filter>
    <filter id="soft" x="-60%" y="-60%" width="220%" height="220%"><feGaussianBlur stdDeviation="14"/></filter>
    <filter id="rim" x="-35%" y="-35%" width="170%" height="170%"><feDropShadow dx="0" dy="0" stdDeviation="9" flood-color="#ff6a00" flood-opacity="0.5"/></filter>
    <clipPath id="cp"><rect x="312" y="362" width="176" height="200" rx="10"/></clipPath>
  </defs>
  <rect width="800" height="800" fill="url(#bg)"/>
  <rect width="800" height="800" fill="url(#halo)"/>
  <ellipse cx="400" cy="696" rx="226" ry="40" fill="#ff6a00" opacity="0.14"/>
  <ellipse cx="400" cy="676" rx="166" ry="24" fill="#020308" opacity="0.7" filter="url(#soft)"/>
  <g filter="url(#rim)">
        <path d="M250 270 L320 230 Q400 200 480 230 L550 270 L610 350 L548 392 L548 610 Q400 642 252 610 L252 392 L190 350 Z" fill="url(#fab)" stroke="#ff6a00" stroke-opacity="0.55" stroke-width="2"/>
        <path d="M320 230 Q400 320 480 230 L470 250 Q400 330 330 250 Z" fill="#0c0a14" stroke="#ff6a00" stroke-opacity="0.55" stroke-width="2"/>
        <rect x="330" y="500" width="140" height="70" rx="10" fill="none" stroke="#ff6a00" stroke-opacity="0.55" stroke-width="2"/></g>
  <g clip-path="url(#cp)">
    
    <g filter="url(#glow)" opacity="0.9"><path d="M400 397.23199999999997 L448.576 429.616 V478.192 Q448.576 518.672 400 530.816 Q351.424 518.672 351.424 478.192 V429.616 Z" fill="none" stroke="#ff6a00" stroke-width="2.4288000000000003" stroke-linecap="round" stroke-linejoin="round"/><text x="400" y="457.952" text-anchor="middle" dominant-baseline="middle" font-family="Arial Black, Arial, sans-serif" font-weight="900" font-size="32.38400000000001" fill="#fff" letter-spacing="1">LØ</text><text x="400" y="494.384" text-anchor="middle" dominant-baseline="middle" font-family="Arial Black, Arial, sans-serif" font-weight="900" font-size="9.715200000000001" fill="#ff6a00" letter-spacing="1">EST 2026</text></g>
    <g><path d="M400 397.23199999999997 L448.576 429.616 V478.192 Q448.576 518.672 400 530.816 Q351.424 518.672 351.424 478.192 V429.616 Z" fill="none" stroke="#ff6a00" stroke-width="2.4288000000000003" stroke-linecap="round" stroke-linejoin="round"/><text x="400" y="457.952" text-anchor="middle" dominant-baseline="middle" font-family="Arial Black, Arial, sans-serif" font-weight="900" font-size="32.38400000000001" fill="#fff" letter-spacing="1">LØ</text><text x="400" y="494.384" text-anchor="middle" dominant-baseline="middle" font-family="Arial Black, Arial, sans-serif" font-weight="900" font-size="9.715200000000001" fill="#ff6a00" letter-spacing="1">EST 2026</text></g>
  </g>
  <rect width="800" height="800" fill="url(#toplight)"/>
  <rect width="800" height="800" fill="url(#vig)"/>
  <text x="40" y="60" font-family="Arial, sans-serif" font-weight="900" font-size="26" letter-spacing="3" fill="#e6e9f2">LEOPARD<tspan fill="#ff6a00">Ø</tspan></text>
  <text x="40" y="752" font-family="Arial, sans-serif" font-weight="800" font-size="22" fill="#cbd2e0">Crest Varsity Jacket</text>
  <text x="760" y="752" text-anchor="end" font-family="monospace" font-size="14" letter-spacing="2" fill="#6b7280">VARSITY JACKET</text>
</svg>