<svg xmlns="http://www.w3.org/2000/svg" viewBox="0 0 800 800" width="800" height="800">
  <defs>
    <radialGradient id="bg" cx="50%" cy="34%" r="75%">
      <stop offset="0%" stop-color="#141022"/><stop offset="55%" stop-color="#0a0812"/><stop offset="100%" stop-color="#04050a"/>
    </radialGradient>
    <radialGradient id="halo" cx="50%" cy="42%" r="52%">
      <stop offset="0%" stop-color="#22d3ee" stop-opacity="0.26"/><stop offset="100%" stop-color="#22d3ee" stop-opacity="0"/>
    </radialGradient>
    <linearGradient id="fab" x1="0" y1="0" x2="0" y2="1">
      <stop offset="0%" stop-color="#1d1830"/><stop offset="55%" stop-color="#140f1f"/><stop offset="100%" stop-color="#0a0712"/>
    </linearGradient>
    <filter id="glow" x="-40%" y="-40%" width="180%" height="180%"><feGaussianBlur stdDeviation="4"/></filter>
    <clipPath id="cp"><rect x="302" y="338" width="196" height="70" rx="10"/></clipPath>
  </defs>
  <rect width="800" height="800" fill="url(#bg)"/>
  <rect width="800" height="800" fill="url(#halo)"/>
  <ellipse cx="400" cy="690" rx="230" ry="42" fill="#22d3ee" opacity="0.16"/>
  <g>
        <path d="M250 400 Q400 250 560 380 L560 410 L250 420 Z" fill="url(#fab)" stroke="#22d3ee" stroke-opacity="0.55" stroke-width="2"/>
        <path d="M250 420 Q360 470 520 440 L560 410 L250 410 Z" fill="#0c0a14" stroke="#22d3ee" stroke-opacity="0.55" stroke-width="2"/></g>
  <g clip-path="url(#cp)">
    <g filter="url(#glow)" opacity="0.9"><path d="M383.9 347.24 H416.1 L425.76 356.9 V389.1 L416.1 398.76 H383.9 L374.24 389.1 V356.9 Z" fill="none" stroke="#22d3ee" stroke-width="2" stroke-linecap="round" stroke-linejoin="round"/><text x="400" y="373" text-anchor="middle" dominant-baseline="middle" font-family="Arial Black, Arial, sans-serif" font-weight="900" font-size="12.880000000000003" fill="#fff" letter-spacing="1">LØ</text></g>
    <g><path d="M383.9 347.24 H416.1 L425.76 356.9 V389.1 L416.1 398.76 H383.9 L374.24 389.1 V356.9 Z" fill="none" stroke="#22d3ee" stroke-width="2" stroke-linecap="round" stroke-linejoin="round"/><text x="400" y="373" text-anchor="middle" dominant-baseline="middle" font-family="Arial Black, Arial, sans-serif" font-weight="900" font-size="12.880000000000003" fill="#fff" letter-spacing="1">LØ</text></g>
  </g>
  <text x="40" y="60" font-family="Arial, sans-serif" font-weight="900" font-size="26" letter-spacing="3" fill="#e6e9f2">LEOPARD<tspan fill="#22d3ee">Ø</tspan></text>
  <text x="40" y="752" font-family="Arial, sans-serif" font-weight="800" font-size="22" fill="#cbd2e0">Octagon Sport Visor</text>
  <text x="760" y="752" text-anchor="end" font-family="monospace" font-size="14" letter-spacing="2" fill="#6b7280">VISOR</text>
</svg>