<svg xmlns="http://www.w3.org/2000/svg" viewBox="0 0 800 800" width="800" height="800">
  <defs>
    <radialGradient id="bg" cx="50%" cy="34%" r="75%">
      <stop offset="0%" stop-color="#141022"/><stop offset="55%" stop-color="#0a0812"/><stop offset="100%" stop-color="#04050a"/>
    </radialGradient>
    <radialGradient id="halo" cx="50%" cy="42%" r="50%">
      <stop offset="0%" stop-color="#a855f7" stop-opacity="0.28"/><stop offset="100%" stop-color="#a855f7" stop-opacity="0"/>
    </radialGradient>
    <filter id="glow" x="-30%" y="-30%" width="160%" height="160%"><feGaussianBlur stdDeviation="6"/></filter>
  </defs>
  <rect width="800" height="800" fill="url(#bg)"/>
  <rect width="800" height="800" fill="url(#halo)"/>
  <ellipse cx="400" cy="690" rx="230" ry="42" fill="#a855f7" opacity="0.16"/>
  <g filter="url(#glow)" opacity="0.7"><circle cx="436" cy="410" r="12" fill="none" stroke="#a855f7" stroke-width="4.8"/><circle cx="438.78846202008947" cy="476.29404303700176" r="12" fill="none" stroke="#7c5cff" stroke-width="4.8"/><circle cx="379.82445399125385" cy="435.86473255048855" r="12" fill="none" stroke="#a855f7" stroke-width="4.8"/><circle cx="367.4534028873858" cy="384.07063283801824" r="12" fill="none" stroke="#7c5cff" stroke-width="4.8"/><circle cx="344.04227482074924" cy="374.0188811782178" r="12" fill="none" stroke="#a855f7" stroke-width="4.8"/><circle cx="381.28133301054675" cy="379.77699071553013" r="12" fill="none" stroke="#7c5cff" stroke-width="4.8"/><circle cx="422.84894353393486" cy="434.189560844583" r="12" fill="none" stroke="#a855f7" stroke-width="4.8"/><circle cx="462.3911789103251" cy="477.9734009092318" r="12" fill="none" stroke="#7c5cff" stroke-width="4.8"/><circle cx="454.0215967304642" cy="412.3303760083123" r="12" fill="none" stroke="#a855f7" stroke-width="4.8"/><text x="400" y="410" text-anchor="middle" dominant-baseline="middle" font-family="Arial Black, Arial, sans-serif" font-weight="900" font-size="19.2" fill="#fff" letter-spacing="1">LEOPARDØ</text></g>
  <g>
        <path d="M250 320 L400 250 L550 320 L550 560 L400 630 L250 560 Z" fill="#16131f" stroke="#a855f7" stroke-opacity="0.55" stroke-width="2"/>
        <path d="M250 320 L400 390 L550 320 M400 390 L400 630" fill="none" stroke="#a855f7" stroke-opacity="0.55" stroke-width="2"/></g>
  <g><circle cx="436" cy="410" r="12" fill="none" stroke="#a855f7" stroke-width="4.8"/><circle cx="438.78846202008947" cy="476.29404303700176" r="12" fill="none" stroke="#7c5cff" stroke-width="4.8"/><circle cx="379.82445399125385" cy="435.86473255048855" r="12" fill="none" stroke="#a855f7" stroke-width="4.8"/><circle cx="367.4534028873858" cy="384.07063283801824" r="12" fill="none" stroke="#7c5cff" stroke-width="4.8"/><circle cx="344.04227482074924" cy="374.0188811782178" r="12" fill="none" stroke="#a855f7" stroke-width="4.8"/><circle cx="381.28133301054675" cy="379.77699071553013" r="12" fill="none" stroke="#7c5cff" stroke-width="4.8"/><circle cx="422.84894353393486" cy="434.189560844583" r="12" fill="none" stroke="#a855f7" stroke-width="4.8"/><circle cx="462.3911789103251" cy="477.9734009092318" r="12" fill="none" stroke="#7c5cff" stroke-width="4.8"/><circle cx="454.0215967304642" cy="412.3303760083123" r="12" fill="none" stroke="#a855f7" stroke-width="4.8"/><text x="400" y="410" text-anchor="middle" dominant-baseline="middle" font-family="Arial Black, Arial, sans-serif" font-weight="900" font-size="19.2" fill="#fff" letter-spacing="1">LEOPARDØ</text></g>
  <text x="40" y="60" font-family="Arial, sans-serif" font-weight="900" font-size="26" letter-spacing="3" fill="#e6e9f2">LEOPARD<tspan fill="#a855f7">Ø</tspan></text>
  <text x="40" y="752" font-family="Arial, sans-serif" font-weight="800" font-size="22" fill="#cbd2e0">Leopard Bifold Wallet</text>
  <text x="760" y="752" text-anchor="end" font-family="monospace" font-size="14" letter-spacing="2" fill="#6b7280">WALLET</text>
</svg>