<svg xmlns="http://www.w3.org/2000/svg" viewBox="0 0 800 800" width="800" height="800">
  <defs>
    <radialGradient id="bg" cx="50%" cy="34%" r="75%">
      <stop offset="0%" stop-color="#141022"/><stop offset="55%" stop-color="#0a0812"/><stop offset="100%" stop-color="#04050a"/>
    </radialGradient>
    <radialGradient id="halo" cx="50%" cy="42%" r="50%">
      <stop offset="0%" stop-color="#22d3ee" stop-opacity="0.28"/><stop offset="100%" stop-color="#22d3ee" stop-opacity="0"/>
    </radialGradient>
    <filter id="glow" x="-30%" y="-30%" width="160%" height="160%"><feGaussianBlur stdDeviation="6"/></filter>
  </defs>
  <rect width="800" height="800" fill="url(#bg)"/>
  <rect width="800" height="800" fill="url(#halo)"/>
  <ellipse cx="400" cy="690" rx="230" ry="42" fill="#22d3ee" opacity="0.16"/>
  <g filter="url(#glow)" opacity="0.7"><path d="M352 333.2 H448 L476.8 362 V458 L448 486.8 H352 L323.2 458 V362 Z" fill="none" stroke="#22d3ee" stroke-width="2.88" stroke-linecap="round" stroke-linejoin="round"/><text x="400" y="410" text-anchor="middle" dominant-baseline="middle" font-family="Arial Black, Arial, sans-serif" font-weight="900" font-size="38.400000000000006" fill="#fff" letter-spacing="1">LØ</text></g>
  <g><rect x="312" y="200" width="176" height="400" rx="34" fill="#16131f" stroke="#22d3ee" stroke-opacity="0.55" stroke-width="2"/><rect x="332" y="232" width="136" height="320" rx="14" fill="#0e0b16"/></g>
  <g><path d="M352 333.2 H448 L476.8 362 V458 L448 486.8 H352 L323.2 458 V362 Z" fill="none" stroke="#22d3ee" stroke-width="2.88" stroke-linecap="round" stroke-linejoin="round"/><text x="400" y="410" text-anchor="middle" dominant-baseline="middle" font-family="Arial Black, Arial, sans-serif" font-weight="900" font-size="38.400000000000006" fill="#fff" letter-spacing="1">LØ</text></g>
  <text x="40" y="60" font-family="Arial, sans-serif" font-weight="900" font-size="26" letter-spacing="3" fill="#e6e9f2">LEOPARD<tspan fill="#22d3ee">Ø</tspan></text>
  <text x="40" y="752" font-family="Arial, sans-serif" font-weight="800" font-size="22" fill="#cbd2e0">Octagon Webcam Cover</text>
  <text x="760" y="752" text-anchor="end" font-family="monospace" font-size="14" letter-spacing="2" fill="#6b7280">WEBCAM COVER</text>
</svg>