<svg xmlns="http://www.w3.org/2000/svg" viewBox="0 0 800 800" width="800" height="800">
  <defs>
    <radialGradient id="bg" cx="50%" cy="34%" r="75%">
      <stop offset="0%" stop-color="#141022"/><stop offset="55%" stop-color="#0a0812"/><stop offset="100%" stop-color="#04050a"/>
    </radialGradient>
    <radialGradient id="halo" cx="50%" cy="42%" r="52%">
      <stop offset="0%" stop-color="#a855f7" stop-opacity="0.26"/><stop offset="100%" stop-color="#a855f7" stop-opacity="0"/>
    </radialGradient>
    <linearGradient id="fab" x1="0" y1="0" x2="0" y2="1">
      <stop offset="0%" stop-color="#1d1830"/><stop offset="55%" stop-color="#140f1f"/><stop offset="100%" stop-color="#0a0712"/>
    </linearGradient>
    <filter id="glow" x="-40%" y="-40%" width="180%" height="180%"><feGaussianBlur stdDeviation="4"/></filter>
    <clipPath id="cp"><rect x="258" y="258" width="284" height="284" rx="10"/></clipPath>
  </defs>
  <rect width="800" height="800" fill="url(#bg)"/>
  <rect width="800" height="800" fill="url(#halo)"/>
  <ellipse cx="400" cy="690" rx="230" ry="42" fill="#a855f7" opacity="0.16"/>
  <g><rect x="240" y="240" width="320" height="320" rx="16" fill="url(#fab)" stroke="#a855f7" stroke-opacity="0.55" stroke-width="2"/></g>
  <g clip-path="url(#cp)">
    <g filter="url(#glow)" opacity="0.9"><circle cx="400" cy="400" r="111.04400000000001" fill="none" stroke="#a855f7" stroke-width="3.9192000000000005" stroke-linecap="round" stroke-linejoin="round"/><circle cx="400" cy="400" r="78.384" stroke="#7c5cff" fill="none" stroke-width="3.2660000000000005"/><ellipse cx="471.85200000000003" cy="400" rx="13.064000000000002" ry="33.96640000000001" transform="rotate(90 471.85200000000003 400)" stroke="#a855f7" fill="none" stroke-width="2.6128000000000005"/><ellipse cx="450.80703644181585" cy="450.8070364418158" rx="13.064000000000002" ry="33.96640000000001" transform="rotate(135 450.80703644181585 450.8070364418158)" stroke="#a855f7" fill="none" stroke-width="2.6128000000000005"/><ellipse cx="400" cy="471.85200000000003" rx="13.064000000000002" ry="33.96640000000001" transform="rotate(180 400 471.85200000000003)" stroke="#a855f7" fill="none" stroke-width="2.6128000000000005"/><ellipse cx="349.1929635581842" cy="450.80703644181585" rx="13.064000000000002" ry="33.96640000000001" transform="rotate(225 349.1929635581842 450.80703644181585)" stroke="#a855f7" fill="none" stroke-width="2.6128000000000005"/><ellipse cx="328.14799999999997" cy="400" rx="13.064000000000002" ry="33.96640000000001" transform="rotate(270 328.14799999999997 400)" stroke="#a855f7" fill="none" stroke-width="2.6128000000000005"/><ellipse cx="349.19296355818415" cy="349.1929635581842" rx="13.064000000000002" ry="33.96640000000001" transform="rotate(315 349.19296355818415 349.1929635581842)" stroke="#a855f7" fill="none" stroke-width="2.6128000000000005"/><ellipse cx="400" cy="328.14799999999997" rx="13.064000000000002" ry="33.96640000000001" transform="rotate(360 400 328.14799999999997)" stroke="#a855f7" fill="none" stroke-width="2.6128000000000005"/><ellipse cx="450.8070364418158" cy="349.19296355818415" rx="13.064000000000002" ry="33.96640000000001" transform="rotate(405 450.8070364418158 349.19296355818415)" stroke="#a855f7" fill="none" stroke-width="2.6128000000000005"/><circle cx="400" cy="400" r="13.064000000000002" fill="#a855f7"/></g>
    <g><circle cx="400" cy="400" r="111.04400000000001" fill="none" stroke="#a855f7" stroke-width="3.9192000000000005" stroke-linecap="round" stroke-linejoin="round"/><circle cx="400" cy="400" r="78.384" stroke="#7c5cff" fill="none" stroke-width="3.2660000000000005"/><ellipse cx="471.85200000000003" cy="400" rx="13.064000000000002" ry="33.96640000000001" transform="rotate(90 471.85200000000003 400)" stroke="#a855f7" fill="none" stroke-width="2.6128000000000005"/><ellipse cx="450.80703644181585" cy="450.8070364418158" rx="13.064000000000002" ry="33.96640000000001" transform="rotate(135 450.80703644181585 450.8070364418158)" stroke="#a855f7" fill="none" stroke-width="2.6128000000000005"/><ellipse cx="400" cy="471.85200000000003" rx="13.064000000000002" ry="33.96640000000001" transform="rotate(180 400 471.85200000000003)" stroke="#a855f7" fill="none" stroke-width="2.6128000000000005"/><ellipse cx="349.1929635581842" cy="450.80703644181585" rx="13.064000000000002" ry="33.96640000000001" transform="rotate(225 349.1929635581842 450.80703644181585)" stroke="#a855f7" fill="none" stroke-width="2.6128000000000005"/><ellipse cx="328.14799999999997" cy="400" rx="13.064000000000002" ry="33.96640000000001" transform="rotate(270 328.14799999999997 400)" stroke="#a855f7" fill="none" stroke-width="2.6128000000000005"/><ellipse cx="349.19296355818415" cy="349.1929635581842" rx="13.064000000000002" ry="33.96640000000001" transform="rotate(315 349.19296355818415 349.1929635581842)" stroke="#a855f7" fill="none" stroke-width="2.6128000000000005"/><ellipse cx="400" cy="328.14799999999997" rx="13.064000000000002" ry="33.96640000000001" transform="rotate(360 400 328.14799999999997)" stroke="#a855f7" fill="none" stroke-width="2.6128000000000005"/><ellipse cx="450.8070364418158" cy="349.19296355818415" rx="13.064000000000002" ry="33.96640000000001" transform="rotate(405 450.8070364418158 349.19296355818415)" stroke="#a855f7" fill="none" stroke-width="2.6128000000000005"/><circle cx="400" cy="400" r="13.064000000000002" fill="#a855f7"/></g>
  </g>
  <text x="40" y="60" font-family="Arial, sans-serif" font-weight="900" font-size="26" letter-spacing="3" fill="#e6e9f2">LEOPARD<tspan fill="#a855f7">Ø</tspan></text>
  <text x="40" y="752" font-family="Arial, sans-serif" font-weight="800" font-size="22" fill="#cbd2e0">Mandala Yoga Mat</text>
  <text x="760" y="752" text-anchor="end" font-family="monospace" font-size="14" letter-spacing="2" fill="#6b7280">YOGA MAT</text>
</svg>