<svg xmlns="http://www.w3.org/2000/svg" viewBox="0 0 800 800" width="800" height="800">
  <defs>
    <radialGradient id="bg" cx="50%" cy="34%" r="75%">
      <stop offset="0%" stop-color="#141022"/><stop offset="55%" stop-color="#0a0812"/><stop offset="100%" stop-color="#04050a"/>
    </radialGradient>
    <radialGradient id="halo" cx="50%" cy="42%" r="50%">
      <stop offset="0%" stop-color="#a855f7" stop-opacity="0.28"/><stop offset="100%" stop-color="#a855f7" stop-opacity="0"/>
    </radialGradient>
    <filter id="glow" x="-30%" y="-30%" width="160%" height="160%"><feGaussianBlur stdDeviation="6"/></filter>
  </defs>
  <rect width="800" height="800" fill="url(#bg)"/>
  <rect width="800" height="800" fill="url(#halo)"/>
  <ellipse cx="400" cy="690" rx="230" ry="42" fill="#a855f7" opacity="0.16"/>
  <g filter="url(#glow)" opacity="0.7"><circle cx="400" cy="400" r="119" fill="none" stroke="#a855f7" stroke-width="4.2" stroke-linecap="round" stroke-linejoin="round"/><circle cx="400" cy="400" r="84" stroke="#7c5cff" fill="none" stroke-width="3.5"/><ellipse cx="477" cy="400" rx="14" ry="36.4" transform="rotate(90 477 400)" stroke="#a855f7" fill="none" stroke-width="2.8000000000000003"/><ellipse cx="454.44722215136414" cy="454.44722215136414" rx="14" ry="36.4" transform="rotate(135 454.44722215136414 454.44722215136414)" stroke="#a855f7" fill="none" stroke-width="2.8000000000000003"/><ellipse cx="400" cy="477" rx="14" ry="36.4" transform="rotate(180 400 477)" stroke="#a855f7" fill="none" stroke-width="2.8000000000000003"/><ellipse cx="345.55277784863586" cy="454.44722215136414" rx="14" ry="36.4" transform="rotate(225 345.55277784863586 454.44722215136414)" stroke="#a855f7" fill="none" stroke-width="2.8000000000000003"/><ellipse cx="323" cy="400" rx="14" ry="36.4" transform="rotate(270 323 400)" stroke="#a855f7" fill="none" stroke-width="2.8000000000000003"/><ellipse cx="345.55277784863586" cy="345.55277784863586" rx="14" ry="36.4" transform="rotate(315 345.55277784863586 345.55277784863586)" stroke="#a855f7" fill="none" stroke-width="2.8000000000000003"/><ellipse cx="400" cy="323" rx="14" ry="36.4" transform="rotate(360 400 323)" stroke="#a855f7" fill="none" stroke-width="2.8000000000000003"/><ellipse cx="454.44722215136414" cy="345.55277784863586" rx="14" ry="36.4" transform="rotate(405 454.44722215136414 345.55277784863586)" stroke="#a855f7" fill="none" stroke-width="2.8000000000000003"/><circle cx="400" cy="400" r="14" fill="#a855f7"/></g>
  <g><rect x="240" y="240" width="320" height="320" rx="16" fill="#16131f" stroke="#a855f7" stroke-opacity="0.55" stroke-width="2"/></g>
  <g><circle cx="400" cy="400" r="119" fill="none" stroke="#a855f7" stroke-width="4.2" stroke-linecap="round" stroke-linejoin="round"/><circle cx="400" cy="400" r="84" stroke="#7c5cff" fill="none" stroke-width="3.5"/><ellipse cx="477" cy="400" rx="14" ry="36.4" transform="rotate(90 477 400)" stroke="#a855f7" fill="none" stroke-width="2.8000000000000003"/><ellipse cx="454.44722215136414" cy="454.44722215136414" rx="14" ry="36.4" transform="rotate(135 454.44722215136414 454.44722215136414)" stroke="#a855f7" fill="none" stroke-width="2.8000000000000003"/><ellipse cx="400" cy="477" rx="14" ry="36.4" transform="rotate(180 400 477)" stroke="#a855f7" fill="none" stroke-width="2.8000000000000003"/><ellipse cx="345.55277784863586" cy="454.44722215136414" rx="14" ry="36.4" transform="rotate(225 345.55277784863586 454.44722215136414)" stroke="#a855f7" fill="none" stroke-width="2.8000000000000003"/><ellipse cx="323" cy="400" rx="14" ry="36.4" transform="rotate(270 323 400)" stroke="#a855f7" fill="none" stroke-width="2.8000000000000003"/><ellipse cx="345.55277784863586" cy="345.55277784863586" rx="14" ry="36.4" transform="rotate(315 345.55277784863586 345.55277784863586)" stroke="#a855f7" fill="none" stroke-width="2.8000000000000003"/><ellipse cx="400" cy="323" rx="14" ry="36.4" transform="rotate(360 400 323)" stroke="#a855f7" fill="none" stroke-width="2.8000000000000003"/><ellipse cx="454.44722215136414" cy="345.55277784863586" rx="14" ry="36.4" transform="rotate(405 454.44722215136414 345.55277784863586)" stroke="#a855f7" fill="none" stroke-width="2.8000000000000003"/><circle cx="400" cy="400" r="14" fill="#a855f7"/></g>
  <text x="40" y="60" font-family="Arial, sans-serif" font-weight="900" font-size="26" letter-spacing="3" fill="#e6e9f2">LEOPARD<tspan fill="#a855f7">Ø</tspan></text>
  <text x="40" y="752" font-family="Arial, sans-serif" font-weight="800" font-size="22" fill="#cbd2e0">Mandala Yoga Mat</text>
  <text x="760" y="752" text-anchor="end" font-family="monospace" font-size="14" letter-spacing="2" fill="#6b7280">YOGA MAT</text>
</svg>